<?xml version="1.0" encoding="UTF-8"?>
<svg width="34px" height="31px" viewBox="0 0 34 31" version="1.1" xmlns="http://www.w3.org/2000/svg" xmlns:xlink="http://www.w3.org/1999/xlink">
    <title>Group 34</title>
    <defs>
        <polygon id="path-1" points="0.00902492564 0 1.58830705 0 1.58830705 11.1343563 0.00902492564 11.1343563"></polygon>
        <polygon id="path-3" points="0.00902492564 0 1.58830705 0 1.58830705 1.85070843 0.00902492564 1.85070843"></polygon>
        <polygon id="path-5" points="0.00926452544 0 1.58806745 0 1.58806745 14.1750322 0.00926452544 14.1750322"></polygon>
    </defs>
    <g id="Page-1" stroke="none" stroke-width="1" fill="none" fill-rule="evenodd">
        <g id="Resources-Copy" transform="translate(-516.000000, -3544.000000)">
            <g id="Group-34" transform="translate(516.000000, 3544.000000)">
                <g id="Group-3" transform="translate(0.000000, 13.227019)">
                    <mask id="mask-2" fill="white">
                        <use xlink:href="#path-1"></use>
                    </mask>
                    <g id="Clip-2"></g>
                    <path d="M0.78964106,0 C0.358361428,0 0.010143058,0.342254299 0.010143058,0.762149619 L0.010143058,10.3722067 C0.010143058,10.7936865 0.358361428,11.1343563 0.78964106,11.1343563 C1.22092069,11.1343563 1.56913906,10.7936865 1.56913906,10.3722067 L1.56913906,0.762149619 C1.56913906,0.342254299 1.22092069,0 0.78964106,0" id="Fill-1" fill="#1D63FF" mask="url(#mask-2)"></path>
                </g>
                <path d="M3.93127358,14.7124982 C3.49999395,14.7124982 3.15177558,15.0547525 3.15177558,15.4746478 L3.15177558,21.8998385 C3.15177558,22.3213183 3.49999395,22.6635726 3.93127358,22.6635726 C4.36255321,22.6635726 4.71077158,22.3213183 4.71077158,21.8998385 L4.71077158,15.4746478 C4.71077158,15.0547525 4.36255321,14.7124982 3.93127358,14.7124982" id="Fill-4" fill="#1D63FF"></path>
                <path d="M7.0729061,16.2428186 C6.64162647,16.2428186 6.2934081,16.5850729 6.2934081,17.0049682 L6.2934081,20.2452925 C6.2934081,20.6683568 6.64162647,21.0090266 7.0729061,21.0090266 C7.50578307,21.0090266 7.85400144,20.6683568 7.85400144,20.2452925 L7.85400144,17.0049682 C7.85400144,16.5850729 7.50578307,16.2428186 7.0729061,16.2428186" id="Fill-6" fill="#1D63FF"></path>
                <path d="M10.216136,17.7886672 C9.78485632,17.7886672 9.43663796,18.1309215 9.43663796,18.5508168 L9.43663796,18.6078592 C9.43663796,19.029339 9.78485632,19.3700088 10.216136,19.3700088 C10.6474156,19.3700088 10.995634,19.029339 10.995634,18.6078592 L10.995634,18.5508168 C10.995634,18.1309215 10.6474156,17.7886672 10.216136,17.7886672" id="Fill-8" fill="#1D63FF"></path>
                <path d="M10.216136,5.04302202 C9.78485632,5.04302202 9.43663796,5.38369181 9.43663796,5.80517164 L9.43663796,15.4881162 C9.43663796,15.909596 9.78485632,16.2502658 10.216136,16.2502658 C10.6474156,16.2502658 10.995634,15.909596 10.995634,15.4881162 L10.995634,5.80517164 C10.995634,5.38369181 10.6474156,5.04302202 10.216136,5.04302202" id="Fill-10" fill="#FFFFFF"></path>
                <path d="M7.0729061,6.70644129 C6.64162647,6.70644129 6.2934081,7.04869559 6.2934081,7.46859091 L6.2934081,14.0015283 C6.2934081,14.4245926 6.64162647,14.7652624 7.0729061,14.7652624 C7.50578307,14.7652624 7.85400144,14.4245926 7.85400144,14.0015283 L7.85400144,7.46859091 C7.85400144,7.04869559 7.50578307,6.70644129 7.0729061,6.70644129" id="Fill-12" fill="#FFFFFF"></path>
                <path d="M3.93127358,8.38523032 C3.49999395,8.38523032 3.15177558,8.72748461 3.15177558,9.14737993 L3.15177558,12.4716833 C3.15177558,12.8931631 3.49999395,13.2354174 3.93127358,13.2354174 C4.36255321,13.2354174 4.71077158,12.8931631 4.71077158,12.4716833 L4.71077158,9.14737993 C4.71077158,8.72748461 4.36255321,8.38523032 3.93127358,8.38523032" id="Fill-14" fill="#FFFFFF"></path>
                <g id="Group-18" transform="translate(0.000000, 9.838227)">
                    <mask id="mask-4" fill="white">
                        <use xlink:href="#path-3"></use>
                    </mask>
                    <g id="Clip-17"></g>
                    <path d="M0.78964106,0 C0.358361428,0 0.010143058,0.342254299 0.010143058,0.762149619 L0.010143058,1.08855881 C0.010143058,1.51003864 0.358361428,1.85070843 0.78964106,1.85070843 C1.22092069,1.85070843 1.56913906,1.51003864 1.56913906,1.08855881 L1.56913906,0.762149619 C1.56913906,0.342254299 1.22092069,0 0.78964106,0" id="Fill-16" fill="#FFFFFF" mask="url(#mask-4)"></path>
                </g>
                <path d="M13.3577685,3.40891619 C12.9264888,3.40891619 12.5782705,3.75117049 12.5782705,4.17106581 L12.5782705,30.2378504 C12.5782705,30.6593302 12.9264888,31 13.3577685,31 C13.7890481,31 14.1372665,30.6593302 14.1372665,30.2378504 L14.1372665,4.17106581 C14.1372665,3.75117049 13.7890481,3.40891619 13.3577685,3.40891619" id="Fill-19" fill="#FFFFFF"></path>
                <path d="M16.499401,1.67736297 C16.0681214,1.67736297 15.719903,2.01961726 15.719903,2.43951258 L15.719903,28.3272474 C15.719903,28.7503118 16.0681214,29.0909816 16.499401,29.0909816 C16.932278,29.0909816 17.2804963,28.7503118 17.2804963,28.3272474 L17.2804963,2.43951258 C17.2804963,2.01961726 16.932278,1.67736297 16.499401,1.67736297" id="Fill-21" fill="#FFFFFF"></path>
                <path d="M19.6424711,0 C19.2111915,0 18.8629731,0.342254299 18.8629731,0.762149619 L18.8629731,26.6007647 C18.8629731,27.0222445 19.2111915,27.3644988 19.6424711,27.3644988 C20.0737508,27.3644988 20.4219691,27.0222445 20.4219691,26.6007647 L20.4219691,0.762149619 C20.4219691,0.342254299 20.0737508,0 19.6424711,0" id="Fill-23" fill="#FFFFFF"></path>
                <path d="M22.7841036,1.13276666 C22.352824,1.13276666 22.0046056,1.47343645 22.0046056,1.89491628 L22.0046056,24.8719051 C22.0046056,25.2949694 22.352824,25.6356392 22.7841036,25.6356392 C23.2153833,25.6356392 23.5636016,25.2949694 23.5636016,24.8719051 L23.5636016,1.89491628 C23.5636016,1.47343645 23.2153833,1.13276666 22.7841036,1.13276666" id="Fill-25" fill="#FFFFFF"></path>
                <path d="M25.9273335,2.90298195 C25.4944565,2.90298195 25.1462382,3.24523625 25.1462382,3.66513157 L25.1462382,23.1752111 C25.1462382,23.5982754 25.4944565,23.9373607 25.9273335,23.9373607 C26.3586131,23.9373607 26.7068315,23.5982754 26.7068315,23.1752111 L26.7068315,3.66513157 C26.7068315,3.24523625 26.3586131,2.90298195 25.9273335,2.90298195" id="Fill-27" fill="#FFFFFF"></path>
                <path d="M29.068966,4.65608452 C28.6376864,4.65608452 28.289468,4.99675431 28.289468,5.41823414 L28.289468,21.4027775 C28.289468,21.8242573 28.6376864,22.1665116 29.068966,22.1665116 C29.5002457,22.1665116 29.848464,21.8242573 29.848464,21.4027775 L29.848464,5.41823414 C29.848464,4.99675431 29.5002457,4.65608452 29.068966,4.65608452" id="Fill-29" fill="#FFFFFF"></path>
                <g id="Group-33" transform="translate(31.402668, 6.383043)">
                    <mask id="mask-6" fill="white">
                        <use xlink:href="#path-5"></use>
                    </mask>
                    <g id="Clip-32"></g>
                    <path d="M0.807930511,0 C0.376650879,0 0.0284325091,0.342254299 0.0284325091,0.762149619 L0.0284325091,13.4128826 C0.0284325091,13.8343624 0.376650879,14.1750322 0.807930511,14.1750322 C1.24080748,14.1750322 1.58742851,13.8343624 1.58742851,13.4128826 L1.58742851,0.762149619 C1.58742851,0.342254299 1.24080748,0 0.807930511,0" id="Fill-31" fill="#FFFFFF" mask="url(#mask-6)"></path>
                </g>
            </g>
        </g>
    </g>
</svg>