<svg xmlns="http://www.w3.org/2000/svg" width="64" height="64" viewBox="0 0 64 64"><g class="nc-icon-wrapper" stroke-linecap="square" stroke-linejoin="miter" stroke-width="2" fill="none" stroke="#10183a" stroke-miterlimit="10"><path d="M49,41l6.331-3.8a4.415,4.415,0,0,1,5.983,1.4h0A4.413,4.413,0,0,1,60.3,44.475L49,53.229a6,6,0,0,1-2.218,1.076L26.527,59.368a6,6,0,0,1-4.714-.783L7,49H2V33l9.958-1.66a6,6,0,0,1,3.859.651L25,37l14.911.785A4.315,4.315,0,0,1,44,42.094h0a4.316,4.316,0,0,1-3.886,4.3L24,48"></path><circle cx="39" cy="16" r="12" stroke="#1d63ff"></circle><rect x="35.464" y="12.464" width="7.071" height="7.071" transform="translate(0.109 32.263) rotate(-45)" stroke="#1d63ff"></rect></g></svg>