<?xml version="1.0" encoding="UTF-8"?>
<svg width="250px" height="80px" viewBox="0 0 250 80" version="1.1" xmlns="http://www.w3.org/2000/svg" xmlns:xlink="http://www.w3.org/1999/xlink">
    <title>Logo_Customer_Volvo</title>
    <g id="Logo_Customer_Volvo" stroke="none" stroke-width="1" fill="none" fill-rule="evenodd">
        <g id="Unknown" transform="translate(2.000000, 30.000000)" fill="#10183A">
            <path d="M0,0 L18.0054063,0 L18.0054063,3.6375 L13.7029688,3.6375 L19.6992188,14.545 L25.6929063,3.63625 L22.268125,3.63625 L22.2386563,0 L35.1152187,0 L35.1434062,3.7325 L30.8307187,3.7325 L22.3027188,20 L11.9899375,20 L4.2819375,3.6375 L0,3.6375 L0,0 Z M71.5411563,20 C79.1645938,20 85.346625,15.5225 85.346625,10 C85.346625,4.4775 79.165875,0 71.5411563,0 C63.9164375,0 57.733125,4.4775 57.733125,10 C57.733125,15.5225 63.9151563,20 71.539875,20 L71.5411563,20 Z M71.5411562,18.1825 C74.399625,18.1825 76.7174062,14.51875 76.7174062,10 C76.7174062,5.48125 74.399625,1.81875 71.5411562,1.81875 C68.6814062,1.81875 66.363625,5.48125 66.363625,10 C66.363625,14.51875 68.6826875,18.1825 71.539875,18.1825 L71.5411562,18.1825 Z M117.143406,3.63625 L112.958844,3.63625 L112.958844,0 L128.856594,0 L128.856594,3.6375 L124.673313,3.6375 L124.673313,17.3025 L130.531188,17.3025 C134.714469,17.3025 134.714469,13.63625 134.714469,10.90875 L138.061094,10.90875 L138.061094,20 L112.958844,20 L112.958844,17.3025 L117.143406,17.3025 L117.143406,3.6375 L117.143406,3.63625 Z M160.653375,0 L178.658781,0 L178.658781,3.6375 L174.356344,3.6375 L180.351312,14.545 L186.346281,3.63625 L182.920219,3.63625 L182.892031,0 L195.767312,0 L195.7955,3.7325 L191.484094,3.7325 L182.956094,20 L172.643312,20 L164.935312,3.6375 L160.653375,3.6375 L160.653375,0 L160.653375,0 Z M246,10 C246,15.5225 239.81925,20 232.19325,20 C224.568531,20 218.387781,15.5225 218.387781,10 C218.387781,4.4775 224.568531,0 232.19325,0 C239.81925,0 246,4.4775 246,10 Z M237.370781,10 C237.370781,14.51875 235.053,18.1825 232.194531,18.1825 C229.334781,18.1825 227.017,14.51875 227.017,10 C227.017,5.48125 229.334781,1.81875 232.194531,1.81875 C235.053,1.81875 237.370781,5.48125 237.370781,10 Z" id="Shape"></path>
        </g>
    </g>
</svg>