<?xml version="1.0" encoding="UTF-8"?>
<svg width="250px" height="80px" viewBox="0 0 250 80" version="1.1" xmlns="http://www.w3.org/2000/svg" xmlns:xlink="http://www.w3.org/1999/xlink">
    <title>Logo_Customer_Nestle</title>
    <defs>
        <polygon id="path-1" points="0 0 85.1070533 0 85.1070533 61 0 61"></polygon>
    </defs>
    <g id="Logo_Customer_Nestle" stroke="none" stroke-width="1" fill="none" fill-rule="evenodd">
        <g id="Group-10" transform="translate(17.000000, 10.000000)">
            <path d="M198.608191,32.9304285 C198.887984,30.3100735 200.897964,28.3506283 203.95555,28.3506283 C206.94984,28.3506283 209.024913,30.3100735 209.30183,32.9304285 L198.608191,32.9304285 Z M203.933972,23.5996007 C196.513697,23.5996007 192.343772,29.3726205 192.343772,35.4655278 C192.343772,41.9621453 196.811832,47.6714026 203.977127,47.6714026 C207.548267,47.6714026 211.056831,46.3298811 213.066451,43.9642183 C213.943951,42.9418679 214.649548,41.5150909 214.649548,40.6421169 C214.649548,40.3437224 214.584455,40.0879557 214.41399,39.8963098 C214.242805,39.6828126 213.986388,39.5545711 213.536489,39.5545711 L210.093738,39.5545711 C209.40864,39.5545711 208.938602,39.8110542 208.596952,40.3218712 C207.591423,41.7923506 206.137433,42.5585761 203.999065,42.5585761 C200.791153,42.5585761 198.717159,40.1305835 198.566473,37.467959 L213.495491,37.467959 C214.156494,37.467959 214.62797,37.3185826 214.948762,36.9990534 C215.311989,36.6580311 215.483533,36.1687071 215.483533,35.2520307 C215.483533,32.4615228 214.606392,29.5642664 212.767238,27.3490545 C210.885287,25.1127079 207.976948,23.5996007 203.933972,23.5996007 L203.933972,23.5996007 Z M213.365305,20.3409036 C213.814844,20.3409036 214.156494,20.2126621 214.41399,19.9995232 C214.691265,19.7437565 214.820733,19.4030924 214.820733,18.8919172 L214.820733,16.9102626 C214.820733,16.1436789 214.670047,15.7607453 214.41399,15.4831274 C214.178791,15.2277189 213.794345,15.0794172 213.365305,15.0794172 C213.024374,15.0794172 212.681645,15.1209704 212.104077,15.1850911 L195.03777,16.867993 C194.544356,16.9102626 194.310236,17.0592807 194.139051,17.2516431 C193.946649,17.4651402 193.860337,17.7416835 193.860337,18.1249753 L193.860337,19.2322231 C193.860337,19.6588591 193.946649,19.8501468 194.097334,20.0206579 C194.289018,20.2345133 194.568092,20.3409036 194.951818,20.3409036 L213.365305,20.3409036 Z M129.251481,32.9304285 C129.529836,30.3100735 131.539456,28.3506283 134.59884,28.3506283 C137.592412,28.3506283 139.667844,30.3100735 139.944761,32.9304285 L129.251481,32.9304285 Z M183.937748,45.3490839 C183.937748,45.9028869 184.109292,46.3083881 184.36499,46.6275592 C184.68722,47.010851 185.13532,47.2454829 185.796682,47.2454829 L188.343592,47.2454829 C189.006033,47.2454829 189.454853,47.010851 189.776363,46.6275592 C190.032421,46.3083881 190.204684,45.9028869 190.204684,45.3490839 L190.204684,17.4662149 C190.204684,16.9113373 190.032421,16.5065524 189.776363,16.1863067 C189.454853,15.8030149 189.006033,15.568383 188.343592,15.568383 L185.796682,15.568383 C185.13532,15.568383 184.68722,15.8030149 184.36499,16.1863067 C184.109292,16.5065524 183.937748,16.9113373 183.937748,17.4662149 L183.937748,45.3490839 Z M170.848604,24.4095286 L169.651032,24.4095286 C169.201492,24.4095286 168.860562,24.5377701 168.603785,24.7501926 C168.32579,25.0052429 168.198121,25.3466234 168.198121,25.8581568 L168.198121,27.3272033 C168.198121,27.8390949 168.32579,28.1804754 168.603785,28.4348093 C168.860562,28.6483064 169.201492,28.7761897 169.651032,28.7761897 L170.848604,28.7761897 L170.848604,39.4066276 C170.848604,42.1330147 171.598076,43.8359767 172.987692,45.2000658 C174.270497,46.4574063 175.939546,47.2454829 178.847525,47.2454829 L180.665462,47.2454829 C181.115001,47.2454829 181.457011,47.1175996 181.713068,46.9044607 C181.991063,46.6490522 182.162967,46.3083881 182.162967,45.797213 L182.162967,43.9427253 C182.162967,43.4326247 181.991063,43.0912442 181.713068,42.8358358 C181.457011,42.6237715 181.115001,42.4955299 180.665462,42.4955299 L180.409404,42.4955299 C179.253909,42.4955299 178.46236,42.1971354 177.927948,41.685602 C177.286006,41.0884549 176.965215,40.1735695 176.965215,38.9799915 L176.965215,28.7761897 L180.857865,28.7761897 C181.307404,28.7761897 181.649413,28.6483064 181.905831,28.4348093 C182.184185,28.1804754 182.312214,27.8390949 182.312214,27.3272033 L182.312214,25.8581568 C182.312214,25.3466234 182.184185,25.0052429 181.905831,24.7501926 C181.649413,24.5377701 181.307404,24.4095286 180.857865,24.4095286 L176.987512,24.4095286 L176.987512,17.4651402 C176.987512,16.9102626 176.815248,16.505836 176.559191,16.1855903 C176.238759,15.8030149 175.78886,15.568383 175.12606,15.568383 L172.709697,15.568383 C172.046896,15.568383 171.598076,15.8030149 171.275846,16.1855903 C171.020868,16.505836 170.848604,16.9102626 170.848604,17.4651402 L170.848604,24.4095286 Z M157.524621,23.5996007 C151.665507,23.5996007 147.816013,26.3689737 147.816013,30.8001139 C147.816013,32.375909 148.392142,33.6540261 149.333297,34.6555999 C150.425138,35.8273266 151.98486,36.6372545 154.252695,37.2121923 L159.150515,38.4480398 C160.498413,38.7887038 161.695266,39.1931305 161.695266,40.3637825 C161.695266,42.1756424 159.77016,42.7935662 157.718103,42.7935662 C156.711854,42.7935662 155.664608,42.6019203 154.808685,42.1756424 C154.209899,41.8768897 153.697065,41.4516866 153.333477,40.8763906 C153.013046,40.3856337 152.906235,40.0231185 152.4139,39.7469334 C152.115046,39.5764223 151.750739,39.5545711 151.259483,39.5545711 L148.607921,39.5545711 C148.030353,39.5545711 147.751279,39.7261569 147.559236,39.9604306 C147.366833,40.1947043 147.302819,40.5360848 147.302819,40.8763906 C147.302819,41.7282298 147.601672,42.7935662 148.307988,43.752154 C149.932803,45.9250963 153.333477,47.6714026 157.674947,47.6714026 C161.952403,47.6714026 167.875891,45.9032451 167.875891,40.1947043 C167.875891,38.7249413 167.44829,37.467959 166.656022,36.4448922 C165.651212,35.1452821 164.2188,34.2511733 161.781578,33.6332496 L156.926554,32.3977603 C154.915855,31.8862269 153.9747,31.524428 153.9747,30.2882223 C153.9747,29.095719 155.044603,28.136773 157.524621,28.136773 C158.980049,28.136773 160.305651,28.4566605 161.161573,29.3507693 C161.865732,30.0972928 161.738422,30.4802264 162.294053,30.7789791 C162.637501,30.9491321 163.021947,30.9491321 163.620013,30.9491321 L166.038175,30.9491321 C166.422621,30.9491321 166.699897,30.8850113 166.913877,30.6507376 C167.085421,30.4583752 167.192592,30.1610554 167.192592,29.671015 C167.192592,28.5626926 166.464338,27.1366321 165.182252,26.048728 C163.470407,24.5800397 160.776408,23.5996007 157.524621,23.5996007 L157.524621,23.5996007 Z M134.578341,23.5996007 C127.155909,23.5996007 122.985624,29.3726205 122.985624,35.4655278 C122.985624,41.9621453 127.455482,47.6714026 134.619699,47.6714026 C138.191558,47.6714026 141.698683,46.3298811 143.708303,43.9642183 C144.586163,42.9418679 145.29212,41.5150909 145.29212,40.6421169 C145.29212,40.3437224 145.227746,40.0879557 145.056921,39.8963098 C144.885017,39.6828126 144.629319,39.5545711 144.180139,39.5545711 L140.736309,39.5545711 C140.051571,39.5545711 139.582252,39.8110542 139.239164,40.3218712 C138.235792,41.7923506 136.780364,42.5585761 134.640198,42.5585761 C131.432646,42.5585761 129.358292,40.1305835 129.209045,37.467959 L144.094907,37.467959 C144.757348,37.467959 145.227746,37.3185826 145.548537,36.9990534 C145.912124,36.6580311 146.083309,36.1687071 146.083309,35.2520307 C146.083309,32.4615228 145.206168,29.5642664 143.367372,27.3490545 C141.485421,25.1127079 138.6188,23.5996007 134.578341,23.5996007 L134.578341,23.5996007 Z M115.072295,16.2715623 C114.772362,16.6337193 114.602976,17.0385042 114.602976,17.7416835 L114.602976,37.0839507 L114.494727,37.0839507 C114.494727,37.0839507 103.866181,18.2102309 103.352268,17.3365404 C102.988681,16.7186167 102.583016,16.2934135 102.047166,15.9731678 C101.513113,15.6751315 100.957123,15.4831274 99.88686,15.4831274 L96.3800944,15.4831274 C95.5669679,15.4831274 95.0544931,15.7607453 94.6909058,16.1855903 C94.3916925,16.5484638 94.2201483,16.9528904 94.2201483,17.6560697 L94.2201483,45.0725406 C94.2201483,45.77572 94.3916925,46.1801466 94.6909058,46.5423036 C95.0544931,46.9692979 95.5669679,47.2454829 96.3800944,47.2454829 L98.3688559,47.2454829 C99.1819825,47.2454829 99.6948168,46.9692979 100.058404,46.5423036 C100.357977,46.1801466 100.529162,45.77572 100.529162,45.0725406 L100.529162,25.2610096 L100.635612,25.2610096 C100.635612,25.2610096 111.671261,44.7311602 112.1208,45.4561907 C112.741164,46.4781828 113.78913,47.2454829 115.286635,47.2454829 L118.68731,47.2454829 C119.499717,47.2454829 120.012551,46.9692979 120.376138,46.5423036 C120.676071,46.1801466 120.847256,45.77572 120.847256,45.0725406 L120.847256,20.3409036 L165.523542,20.3409036 C165.973082,20.3409036 166.314372,20.2126621 166.570789,19.9995232 C166.849144,19.7437565 166.978611,19.4030924 166.978611,18.8919172 L166.978611,17.0173694 C166.978611,16.505836 166.849144,16.1651719 166.570789,15.909047 C166.314372,15.6962663 165.973082,15.568383 165.523542,15.568383 L116.762562,15.568383 C115.948717,15.568383 115.435523,15.8452845 115.072295,16.2715623 L115.072295,16.2715623 Z" id="Fill-1" fill="#10183A"></path>
            <g id="Group-9">
                <mask id="mask-2" fill="white">
                    <use xlink:href="#path-1"></use>
                </mask>
                <g id="Clip-8"></g>
                <path d="M50.2983322,42.744992 C52.1151899,39.8445117 53.7356889,37.2728742 57.7135716,35.179456 C57.2928029,34.9251221 56.6925781,34.5368153 56.3771814,34.3276167 C54.8318454,35.0007059 53.300535,36.3461677 51.9947134,37.7066746 C48.992151,40.8167117 49.2629535,42.6106608 46.0956799,43.8214331 C45.3001753,44.1201858 44.3241358,44.4490287 43.0790919,44.7330945 C42.3432861,42.4756131 40.4972983,40.233535 38.5455788,40.233535 C37.1948033,40.233535 35.6332839,40.9356396 33.8322499,41.7280149 C31.7161789,42.6550796 29.7802832,43.7168338 29.1645943,44.1201858 L29.9899483,45.2270753 C30.6200225,44.8828291 32.4368802,43.9862128 34.252659,43.2088826 C35.8285637,42.5361517 37.2552214,41.9823487 38.2150775,41.9823487 C39.7618521,41.9823487 40.7673814,43.7318789 41.321933,45.1371629 C39.2968487,45.615024 35.9637851,45.735743 34.9582558,45.735743 C34.4928928,45.735743 34.3271027,45.8095356 34.1627512,45.9442251 C34.0120656,46.0789145 33.892668,46.3189197 33.8178647,46.6470462 L33.6973882,47.1557138 L34.7780805,47.1557138 C40.3915666,47.1557138 45.6903754,46.2734262 49.0978827,44.2100982 C49.5776309,44.3447877 49.9983996,44.4347 50.5389256,44.4347 C52.4895662,44.4347 54.5009845,43.3729458 55.7622117,42.401104 C56.2131895,42.057216 56.3174826,41.74306 56.3174826,41.3995302 C56.3174826,41.2351088 56.3023781,41.085016 56.2876332,40.9356396 L56.2279344,40.3531793 C54.4254619,41.7731502 52.9254394,42.8349044 51.064347,42.8349044 C50.7342054,42.8349044 50.493612,42.8048142 50.2983322,42.744992 L50.2983322,42.744992 Z M61.6004675,37.1231396 C59.3491751,41.8480175 55.9265633,45.2861811 52.4147629,47.2753582 C50.7485907,48.2167516 49.2474893,48.8300186 46.0050528,48.8300186 L38.9961969,48.8300186 C36.4888469,48.8300186 34.9133019,49.1588615 33.6826433,49.4726593 C32.3617172,49.8165473 31.5208991,50.1607935 30.1855878,50.1607935 C28.2032996,50.1607935 26.3727759,49.1889517 25.4873635,48.2615287 L27.1384311,46.960844 L26.3119982,45.869716 C25.8322499,46.2132458 19.9627062,50.5344135 18.7327669,51.5062553 L18.657604,51.4618364 C18.687813,51.1620091 18.687813,50.8933466 18.687813,50.6239676 C18.687813,47.334464 17.1568622,46.5424469 14.8300472,45.615024 L13.2534232,46.5424469 C16.4509058,47.6038429 17.2467701,48.4560404 17.2467701,50.8338826 C17.2467701,52.7170276 16.5710227,53.4646258 15.5953428,54.0331157 C14.5901731,54.6162924 13.3440503,54.8845967 12.2475343,54.8845967 C11.7821713,54.8845967 11.5721465,54.9748673 11.4081546,55.139647 C11.2276197,55.3187553 11.1373522,55.587776 11.1373522,55.961396 L11.1373522,56.4847505 L11.5124477,56.4847505 C13.5235064,56.4847505 15.3856777,56.1705945 17.4269454,54.5715153 L24.0758103,49.3981502 C25.0216408,50.4745913 27.4085143,51.9694294 30.2294628,51.9694294 C31.8211913,51.9694294 32.8418251,51.5811226 34.3123578,51.2071444 C35.4534682,50.9230785 36.5643695,50.6691029 38.9961969,50.6691029 L46.0359811,50.6691029 C49.638049,50.6691029 51.3790245,49.921863 53.300535,48.8447054 C57.4736975,46.5123567 61.0304518,42.5651672 63.0418701,38.0355175 C62.5164486,37.7066746 62.0212362,37.4068472 61.6004675,37.1231396 L61.6004675,37.1231396 Z M33.7272376,31.785353 C35.6188986,30.4552946 37.5698989,30.3059182 39.1454439,30.3059182 C40.0919937,30.3059182 41.2025354,30.4398912 42.3727759,30.5896258 C43.3182468,30.7096284 44.1738098,30.7988243 45.195163,30.7988243 C47.2511755,30.7988243 49.3226523,30.0519426 50.2235289,29.6625611 C50.4788672,29.9767171 50.9140211,30.3951142 51.258548,30.6938669 C50.8237537,30.9639622 48.061425,32.4588004 45.2401169,32.4588004 C43.9947134,32.4588004 42.8090088,32.309424 41.7880153,32.1747346 C40.8874983,32.0554484 39.9118184,31.9504909 38.9659879,31.9504909 C37.9298899,31.9504909 35.8440279,32.2496019 34.5529512,32.8628688 L33.7272376,31.785353 Z M12.1284963,31.5166905 C12.9387458,31.5166905 13.5993886,31.2476698 14.2294628,30.993336 C14.8300472,30.7544055 15.430272,30.515475 16.2408811,30.515475 C18.1627512,30.515475 20.5341605,31.4421815 22.6196628,32.3237527 C22.7397797,32.3692462 22.8750011,32.39862 23.0102225,32.39862 C23.3403641,32.39862 23.5957024,32.2496019 23.7604136,31.935804 L24.0308564,31.4421815 C21.7342504,30.1114066 18.0721241,28.6910775 16.1660778,28.6910775 C15.2954102,28.6910775 14.6646168,28.9156793 14.0647516,29.1542516 C13.3897235,29.4236306 12.8035244,29.7076964 12.1871162,29.7076964 C10.6719892,29.7076964 6.78509328,28.2125 6.78509328,26.7620807 C6.78509328,25.058044 12.9689548,24.4007164 13.6447022,24.4007164 L14.2600315,23.0097611 C9.77147224,23.0097611 4.42806923,24.5798248 4.42806923,26.6581979 C4.42806923,27.2564197 4.77259609,27.554456 4.77259609,28.1082589 C4.77259609,28.8551407 4.42806923,29.3638084 4.42806923,30.2009607 C4.42806923,30.7544055 4.75821083,31.4568684 5.14877051,32.0701353 C5.56846033,32.712776 6.064392,33.1315313 6.064392,33.6702892 C6.064392,34.0732829 5.79430883,34.5518604 5.79430883,35.4932538 C5.79430883,37.5121629 6.94872556,38.7379804 9.20073724,41.1455546 L9.65135536,41.6237738 C7.79026298,42.3412818 4.3223376,43.83612 3.51208811,44.1803662 C0.705884468,45.3467197 -7.19262753e-05,46.7666905 -7.19262753e-05,49.0094851 C-7.19262753e-05,49.8763694 -7.19262753e-05,50.8632564 0.0603461452,51.745544 L0.599793212,51.745544 C1.72579906,51.745544 1.86066082,51.0728131 1.86066082,50.429456 C1.86066082,49.9960138 1.84627557,49.5031077 1.84627557,48.9639916 C1.86066082,47.7231291 1.90633401,46.6165978 3.91811194,45.7206979 C4.72836143,45.3610483 8.7062441,43.7462076 11.6627737,42.4906582 C12.5338009,42.1173964 13.3440503,41.8028822 14.2442077,41.8028822 C15.249737,41.8028822 16.4052326,42.2366826 17.8469948,43.0892382 C19.0625489,43.8067462 20.3388806,44.7782298 21.3440503,45.8998062 L22.6196628,44.9279644 C21.5245853,43.6419666 20.008739,42.4906582 18.4925332,41.5933254 C16.9763273,40.6967091 15.6244729,40.1729963 14.4844414,40.1729963 C13.9895887,40.1729963 13.5846437,40.2629087 13.2383187,40.3531793 C12.8337334,40.4570622 12.4589975,40.5767065 11.9770915,40.5767065 C11.4228995,40.5767065 10.9575365,40.4427335 10.2817892,39.6643287 C10.0268105,39.3809793 8.40523264,37.5418949 8.06034615,37.0038535 C7.89455608,36.7495196 7.59534277,36.2415684 7.59534277,35.6429883 C7.59534277,35.3890127 7.64065633,35.0899018 7.79026298,34.8212393 C9.18599236,35.896964 10.9118633,36.5553662 13.0135491,36.8097 L12.7283614,35.3890127 C9.7114138,34.5966375 6.49846707,31.9504909 6.49846707,30.2457378 C6.49846707,29.8875211 6.58981344,29.6331873 6.72467521,29.3190313 C7.89455608,30.3951142 10.6417802,31.5166905 12.1284963,31.5166905 L12.1284963,31.5166905 Z M39.0411508,24.684424 L46.7113688,24.684424 L46.1409935,23.3092302 L39.7618521,23.3092302 L39.0411508,24.684424 Z M78.2168757,14.9061836 C80.0182693,14.1435404 83.244882,12.8579007 85.1070533,12.1851698 L85.1070533,10.3614888 C81.3690447,11.7366826 74.8100877,14.4430095 70.3359137,16.8649124 C70.4571095,17.014647 71.2375096,18.1057749 71.3270578,18.2404644 C73.2187188,17.462776 74.9147404,16.9544666 76.4464104,16.9544666 C78.5919712,16.9544666 80.3487705,16.9544666 83.2901955,16.2670488 L83.2901955,14.891855 C81.6391279,15.1902495 79.8830479,15.5495408 78.7426568,15.5495408 C78.0665498,15.5495408 77.8719892,15.4596284 77.8719892,15.2350265 C77.8719892,15.1010535 77.9618971,15.0111411 78.2168757,14.9061836 L78.2168757,14.9061836 Z M74.2095033,9.47920112 C73.0385435,9.47920112 72.7084019,8.83548577 72.7084019,7.92418256 C72.7084019,6.04067932 73.8937469,3.33399417 74.6446572,1.79437893 L72.8285188,1.79437893 C71.8830479,3.61805999 68.1601439,9.46415602 66.1487256,11.8857007 L67.3042212,13.1272797 C68.3856327,11.9311942 69.571697,9.89759819 70.8620544,7.89445058 L71.1026478,7.89445058 C71.1026478,7.99904984 71.0879029,8.118336 71.0879029,8.22293526 C71.0879029,9.91264329 71.9582108,11.1681927 74.1041313,11.1681927 C75.4250573,11.1681927 77.4965341,10.5105069 79.4475343,9.8528211 C81.0691122,9.29973457 82.555109,8.73160293 83.2901955,8.52204618 L83.2901955,6.72809711 C82.4504563,6.98207272 80.7389706,7.64083318 78.967786,8.25302546 C77.1059744,8.89602438 75.275091,9.47920112 74.2095033,9.47920112 L74.2095033,9.47920112 Z M34.4928928,39.4852203 L34.1325421,38.1100265 C37.2246527,36.4504087 40.0466802,35.1203502 44.5496246,34.6865498 C44.6398921,36.4056316 44.5201349,38.5735589 45.7957474,38.5735589 C46.9659879,38.5735589 49.5175725,35.5681211 52.4600764,31.8011146 C52.7305192,32.0554484 53.1656732,32.3237527 53.5558732,32.6232218 L52.8049629,33.5954219 C49.9387008,37.2728742 47.4924882,40.4126433 45.479991,40.4126433 C43.6045134,40.4126433 42.898557,38.214984 42.8683479,36.5700531 C40.0013666,36.8544771 37.2998157,37.8109156 34.4928928,39.4852203 L34.4928928,39.4852203 Z M32.4516251,38.8128476 C30.4700562,39.9193789 28.4140436,40.651932 26.5986244,40.651932 C24.5713823,40.651932 22.7703484,39.7846895 21.269247,37.5264916 C20.638094,36.5700531 20.1436008,35.3739676 19.5430164,34.3122134 C18.8226748,33.056664 18.0415554,32.3839331 16.6753158,32.3839331 C15.430272,32.3839331 14.2143583,32.8922426 12.9232816,33.4456873 L12.9836997,33.7297531 C13.0883524,34.1932855 13.2688874,34.5217702 13.7036817,34.5217702 C13.8986019,34.5217702 14.0938818,34.432216 14.199973,34.402484 C14.9203147,34.1778822 15.4453765,33.984087 16.1808227,33.984087 C17.3064689,33.984087 17.8469948,34.6414145 18.6119308,36.2562553 L18.8978377,36.8544771 C18.1167184,37.1231396 16.2854754,37.2581873 14.9203147,37.2581873 L14.2744167,37.2581873 L14.3801483,37.9011862 C14.4240234,38.1702069 14.5301146,38.3944506 14.7548842,38.4990498 C15.0249674,38.6333811 15.4151675,38.6487844 16.0901955,38.6487844 C17.8020409,38.6487844 19.0470847,38.4392277 19.767786,38.2597611 C21.6141335,40.99582 24.1513329,42.0425291 26.5986244,42.0425291 C28.6837671,42.0425291 30.8001978,41.2798858 32.8270802,40.1729963 L32.4516251,38.8128476 Z M26.8676287,38.2443578 C24.8414655,38.2443578 23.9402293,37.2879193 23.9402293,36.0767887 C23.9402293,33.9536385 27.6782378,31.8752654 31.0411508,30.5896258 L31.9114588,31.710844 C29.8396224,32.5336677 25.6678984,34.2978848 25.6678984,35.8228131 C25.6678984,36.3608546 25.9818566,36.7495196 27.2427242,36.7495196 C29.4343178,36.7495196 31.7913419,35.6881236 33.9674713,34.6267277 C34.1325421,34.5518604 34.3271027,34.4769931 34.5083569,34.4769931 C34.793185,34.4769931 34.9737199,34.5669055 35.1837447,34.8660164 L35.5440953,35.3589225 C33.0068959,36.7495196 29.8396224,38.2443578 26.8676287,38.2443578 L26.8676287,38.2443578 Z M32.7814071,19.3767277 C32.7814071,19.2273513 32.7961519,19.0475265 32.85657,18.86806 C32.9766869,18.4793949 33.2323848,18.1057749 33.862459,18.1057749 C34.1480063,18.1057749 34.463403,18.1806422 34.7183817,18.3601088 C34.9435109,18.5094851 35.0330591,18.7039968 35.0330591,18.8981502 C35.0330591,19.5407909 33.9530861,20.2891055 33.4125601,20.2891055 C33.0220004,20.2891055 32.7814071,19.9151273 32.7814071,19.3767277 L32.7814071,19.3767277 Z M29.2541425,10.151932 C29.2541425,9.50929132 29.6447022,8.80647022 30.3952529,8.80647022 C30.7253945,8.80647022 31.1159541,8.94115968 31.4007822,9.20982218 C31.5665723,9.35991497 31.6413756,9.52433642 31.6413756,9.68839965 C31.6413756,10.0469745 31.2957698,10.391579 30.8915442,10.6305095 C30.5757878,10.809976 30.2452866,10.9292622 29.9600989,10.9292622 C29.4947359,10.9292622 29.2541425,10.6455546 29.2541425,10.151932 L29.2541425,10.151932 Z M44.4888469,5.7867037 C44.4888469,5.26263272 44.7592897,4.32123931 45.7353293,4.32123931 C46.0654709,4.32123931 46.3808676,4.39574838 46.6362059,4.51539275 C46.9961969,4.6798142 47.2367903,4.91910293 47.2367903,5.17343677 C47.2367903,5.44245748 46.9659879,5.7114782 46.5610429,6.04067932 C46.1409935,6.38456732 45.6004675,6.69872334 45.1653136,6.69872334 C44.6398921,6.69872334 44.4888469,6.20545899 44.4888469,5.7867037 L44.4888469,5.7867037 Z M5.98922904,17.3879087 C5.79430883,17.462776 5.70332209,17.5075531 5.599029,17.5075531 C5.43359856,17.5075531 5.3584356,17.3728636 5.3584356,17.2682644 C5.3584356,17.1636651 5.40374916,17.1038429 5.50876152,17.014647 C7.35403012,15.5789145 8.97596763,15.0111411 11.2125152,14.6375211 L11.4825983,15.5341375 L5.98922904,17.3879087 Z M16.1660778,10.4510429 L15.355109,9.95742037 C15.8798112,8.71655783 16.5260688,7.58029456 17.291724,6.72809711 C17.8322499,6.11518839 18.3425669,5.62228225 18.912223,5.12830147 C19.0470847,5.0237022 19.1222477,4.93378981 19.2574691,4.93378981 C19.4085143,4.93378981 19.5124477,5.05307597 19.5124477,5.17343677 C19.5124477,5.23325895 19.482958,5.30776802 19.4228995,5.3976804 C18.507278,6.81800949 16.720989,9.62857747 16.1660778,10.4510429 L16.1660778,10.4510429 Z M5.52422567,5.44245748 C5.3893639,5.32281312 5.3584356,5.24794583 5.3584356,5.15803345 C5.3584356,5.05307597 5.43359856,4.93378981 5.599029,4.93378981 C5.65836817,4.93378981 5.71878624,4.94883491 5.79430883,4.97892512 C6.90556979,5.42741238 7.85032142,5.95040872 8.69077995,6.59340764 C9.39565745,7.13180729 10.0872286,7.78949309 10.7622567,8.58186836 L10.1318229,9.29973457 C9.35142279,8.65637743 6.82968757,6.54898877 5.52422567,5.44245748 L5.52422567,5.44245748 Z M16.5260688,18.9432855 C16.751198,18.5693073 17.4269454,17.6576459 17.6970285,17.3728636 C16.5415329,15.0412313 14.6498719,12.8134819 13.8237986,11.9311942 L13.1340256,12.6035669 C13.9295302,13.7555917 15.2652012,15.9829829 16.5260688,18.9432855 L16.5260688,18.9432855 Z M64.8281591,25.7157298 C64.7227871,25.5810404 64.6332389,25.5215764 64.5124028,25.5215764 C64.3325871,25.5215764 64.2426793,25.6408625 64.2426793,25.775552 C64.2426793,25.9851088 64.3926455,26.2390844 64.7677411,26.8673964 C65.9084918,28.796035 67.3204046,30.7393604 69.0610205,32.5633997 C70.9364981,34.5518604 73.1442751,36.4056316 75.5005799,38.0656077 L76.2363857,38.5735589 C76.3410384,38.6487844 76.4154821,38.6932033 76.5061092,38.6932033 C76.6564352,38.6932033 76.7610879,38.5434687 76.7610879,38.4241826 C76.7610879,38.3493153 76.7312385,38.2748062 76.6413306,38.1999389 C74.4500967,36.21112 72.092713,33.7895753 69.8867341,31.4568684 C68.1601439,29.617784 66.3900382,27.6741003 64.8281591,25.7157298 L64.8281591,25.7157298 Z M26.3119982,24.8040684 C25.4567948,25.9550186 24.2865543,27.4656182 23.3856777,29.0650557 C23.6705057,29.1993869 24.6166959,29.7076964 24.9468375,29.8875211 C25.9818566,28.3321444 27.4232592,26.4189091 28.3683704,24.9681316 C29.2242931,23.6524018 29.5695392,23.0842702 29.6295977,21.3200531 C29.6447022,21.0213004 29.6447022,20.7372346 29.6745516,20.453527 C29.7493549,19.5407909 29.9899483,18.6144426 30.8606159,17.7618869 C31.5065138,17.118888 32.4368802,16.7896869 33.3672466,16.7896869 C34.2677635,16.7896869 34.793185,17.0440207 35.5728658,17.0440207 C36.1288559,17.0440207 36.5345201,16.9096895 36.8941515,16.775 L37.1793392,16.6704007 L36.4888469,18.3153317 L38.1107844,18.9733757 C37.0743268,19.6160164 34.8079299,22.3814491 34.8079299,25.6559076 C34.8079299,26.8373062 34.9884648,27.9287924 35.2427242,28.900276 C35.2732929,29.0052335 35.3340706,29.1094745 35.4984221,29.1094745 C35.6483884,29.1094745 35.7537604,29.0199204 35.7692245,28.8551407 L35.7836098,28.5123274 C35.8285637,27.5096789 35.903367,25.9252866 36.3093909,24.5049575 C36.9851382,22.1124284 38.8005574,19.8696338 40.6170555,18.7931927 L38.0359811,17.6719745 L39.1454439,14.966364 L37.9298899,15.2199814 C37.1948033,15.3693578 36.654637,15.5040473 36.0094583,15.5040473 C35.5894089,15.5040473 35.1078624,15.4445833 34.538566,15.310252 C34.1023331,15.2056528 33.6376894,15.1153822 32.9766869,15.1153822 C31.7913419,15.1153822 30.5157294,15.5642277 29.6447022,16.40138 C28.053693,17.9112633 27.9634255,19.5407909 27.8591324,20.9912102 C27.7235514,22.9194905 27.3628411,23.3984262 26.3119982,24.8040684 L26.3119982,24.8040684 Z M22.8598966,14.6221178 C22.1546595,15.6240498 21.6447022,16.1176724 20.0378692,18.0008174 C17.9217982,20.4979458 16.8105372,22.5161385 14.9645493,27.0017277 C15.2652012,26.9716375 15.7010744,26.9422637 16.1808227,26.9422637 C16.4206968,26.9422637 16.6163363,26.9422637 16.9310137,26.9569506 L17.1568622,26.4783731 C18.1918813,24.2656687 19.5876107,21.2756342 21.5393302,18.9733757 L22.2147179,18.1806422 C24.2261362,15.8332484 25.47118,14.4430095 26.2522994,11.2434182 C26.5227422,10.1071549 26.7478714,9.09053603 27.513167,8.35798295 C28.2032996,7.69958071 29.0743268,7.41587311 29.9600989,7.41587311 C30.7106496,7.41587311 31.2655608,7.59533966 32.0758103,7.93922766 C32.8123354,8.25302546 33.0816993,8.31320586 33.862459,8.31320586 C34.1325421,8.31320586 34.3271027,8.29816076 34.5083569,8.28311566 L33.457514,9.68839965 L34.8834525,10.6906899 C33.0971634,11.2136862 32.1513329,12.932768 31.8366554,13.7247851 C31.7762374,13.8895647 31.7460283,13.9945222 31.7460283,14.0991215 C31.7460283,14.2184076 31.8057271,14.338052 31.9862621,14.338052 C32.1811823,14.338052 32.3311486,14.1883174 32.5861272,13.8895647 C33.457514,12.8432138 34.1480063,12.1257059 37.3595145,11.1241321 L35.0934772,9.41937893 L36.8042437,6.92296697 L35.1992088,6.92296697 C34.1778557,6.92296697 33.5021083,6.90792187 32.6174151,6.50421169 C31.4162463,5.95040872 30.8001978,5.7114782 29.73461,5.7114782 C28.4287885,5.7114782 27.2427242,6.17501057 26.2674039,7.07198511 C25.1417577,8.10364911 24.7961519,9.47920112 24.3908474,10.9890844 C24.0758103,12.1550796 23.7010744,13.4410775 22.8598966,14.6221178 L22.8598966,14.6221178 Z M18.4925332,2.90091022 C18.8079299,2.212776 19.4980625,1.73491497 20.3234165,1.73491497 C21.4494223,1.73491497 22.3499393,2.6017993 22.3499393,3.75239124 C22.3499393,4.42548036 22.0349022,5.0086571 21.5393302,5.36723198 C21.6447022,5.75625529 21.7198651,6.10014329 21.7198651,6.4293444 C21.7198651,7.68453561 20.9685952,8.56718148 19.5876107,9.03035563 C19.4085143,9.79335714 19.0776534,10.4811331 18.5371274,10.9890844 C17.6366105,11.8563269 16.720989,11.8563269 16.720989,12.2149018 C16.720989,12.4094135 16.8562104,12.529416 17.2316655,12.529416 C18.8978377,12.529416 20.5341605,11.6023513 20.7294403,10.0620196 C22.3193706,9.52433642 23.2799461,7.92418256 23.2799461,6.65358804 C23.2799461,6.32474514 23.2508159,6.04067932 23.1155945,5.77130039 C23.5500292,5.3525451 24.0607058,4.6346789 24.0607058,3.57328291 C24.0607058,2.6469346 23.6557608,1.70482477 22.9354192,1.01704876 C22.3046258,0.403781828 21.4188537,-0.000286573335 20.3834749,-0.000286573335 C18.8830928,-0.000286573335 17.9066936,0.80785023 17.3517824,1.6002255 C15.7154597,1.6002255 13.5993886,3.40921967 13.5993886,5.99554402 L13.3735401,5.99554402 C13.2232142,5.09856948 12.2928478,4.50034765 11.5124477,4.45592878 C10.8827332,2.57206732 9.45607552,0.957226581 7.11487525,0.957226581 C6.84443246,0.957226581 6.51393122,0.971913464 6.22910317,1.01704876 C5.53861092,0.389453162 4.77259609,-0.000286573335 3.70736795,-0.000286573335 C1.66574062,-0.000286573335 -7.19262753e-05,1.6303157 -7.19262753e-05,3.69292728 C-7.19262753e-05,4.97892512 0.585407957,5.86085455 1.69630928,6.63854294 C1.69630928,6.63854294 1.68120477,6.80296439 1.68120477,6.87747346 C1.68120477,8.52204618 3.48223871,11.0940419 6.15394021,11.0940419 C6.15394021,11.5124389 6.67936165,12.0805706 7.26448191,12.1851698 L7.26448191,12.3943684 L7.03935266,12.3943684 C3.36212183,12.3943684 1.80060238,14.1589437 1.80060238,15.339984 C0.705884468,15.7888295 -7.19262753e-05,16.9992436 -7.19262753e-05,18.12082 C-7.19262753e-05,20.3482113 1.63625084,21.9336782 3.79727579,21.9336782 C4.51797707,21.9336782 5.25342324,21.6492542 5.7640998,21.2605891 C6.13883569,21.3945622 6.61966285,21.4697877 7.11487525,21.4697877 C8.15025399,21.4697877 9.30610924,21.111571 10.1163587,19.929456 C10.2368352,19.9452175 10.341488,19.9452175 10.4616049,19.9452175 C11.7821713,19.9452175 12.9232816,19.077975 13.5235064,17.9417117 C13.674192,17.6576459 13.7342504,17.433044 13.7342504,17.2682644 C13.7342504,17.1038429 13.6594471,16.9695117 13.493657,16.9695117 C13.2839919,16.9695117 13.2534232,17.1636651 12.8786873,17.5075531 C12.0375096,18.2705546 10.7467925,18.5542622 9.42694538,18.5542622 C8.78104743,19.4967302 7.98554282,19.9899946 7.0695617,19.9899946 C6.39417397,19.9899946 5.86947179,19.810528 5.3285862,19.4512367 C4.8930726,19.929456 4.35290627,20.1246841 3.82748483,20.1246841 C2.64178018,20.1246841 1.80060238,19.3015022 1.80060238,18.1057749 C1.80060238,17.2682644 2.34076871,16.5213826 3.09203866,16.2369586 C3.22726006,14.7571655 4.81790964,13.7555917 6.79947853,13.7555917 C7.05481681,13.7555917 7.31015509,13.7699204 7.57987862,13.8000106 C7.88017082,13.3210749 8.60051247,12.8134819 9.62114633,12.6784342 C9.83189031,12.6490604 9.99624185,12.6336571 10.1163587,12.5741931 C10.2368352,12.5140127 10.2968937,12.3943684 10.2968937,12.2596789 C10.2968937,12.1400345 10.2519398,12.0354353 10.1318229,11.9609262 C10.0268105,11.901104 9.8466352,11.8710138 9.63625084,11.8269532 C8.69077995,11.6467702 7.56477411,11.0639517 6.99475837,9.64362257 C4.72836143,9.64362257 3.06182962,7.83462839 3.06182962,5.8017488 L3.06182962,5.66670112 C2.31127894,5.36723198 1.80060238,4.64936578 1.80060238,3.79752654 C1.80060238,2.67630837 2.68745336,1.77933383 3.81238031,1.77933383 C4.48812767,1.77933383 5.07360755,2.10853495 5.44870308,2.6017993 C5.7640998,2.51224514 6.12409081,2.48215494 6.46933693,2.48215494 C8.15025399,2.48215494 9.95164756,3.54355093 10.2968937,5.60687893 C12.4589975,5.8017488 12.9689548,7.62542986 13.1030973,8.38735671 C13.1786199,8.77709645 13.2383187,9.10593935 13.493657,9.10593935 C13.7648191,9.10593935 13.8237986,8.80647022 13.9140661,8.40240181 C14.0791369,7.64083318 14.3643246,7.02720802 14.9346999,6.54898877 C14.9346999,4.59061825 16.4052326,2.90091022 18.4925332,2.90091022 L18.4925332,2.90091022 Z M70.0212362,20.273344 C64.4379591,11.9756131 59.5300697,9.18044842 58.1487256,7.86436038 C56.6328793,6.4142993 55.4766644,4.76972658 54.7415779,3.97735131 C53.1052551,2.1977309 50.9895437,-0.000286573335 47.5068735,-0.000286573335 C44.1443201,-0.000286573335 41.9221578,2.18304402 41.2025354,4.06690548 C40.9914318,4.60530513 40.8277995,5.26263272 40.677114,5.50227967 C40.3469724,6.04067932 38.8609755,8.56718148 38.2456462,9.56875529 L41.0223601,9.56875529 L39.6708654,12.1103025 C41.2474893,11.7664145 42.3727759,11.5124389 43.8742369,11.5124389 C45.2095482,11.5124389 46.1704833,11.8269532 46.5908923,12.6641055 C47.3712924,14.2184076 47.3712924,18.9278822 48.6918588,22.4713615 C49.9225174,25.8056422 52.9254394,29.0650557 56.3023781,31.5618258 C56.3469724,31.5911996 56.3926455,31.6066029 56.4523443,31.6066029 C56.6181344,31.6066029 56.7227871,31.4869586 56.7227871,31.3673142 C56.7227871,31.27776 56.6925781,31.2182961 56.6181344,31.1430706 C53.7957474,28.3321444 51.4987817,25.2224655 50.2688424,21.8136757 C49.0525691,18.4947982 49.2474893,13.8297426 48.1819016,11.7520859 C47.4759452,10.3765339 45.975563,10.0168843 44.5949382,10.0168843 C43.4840369,10.0168843 42.4475792,10.2418444 41.967831,10.3460855 L43.183385,8.29816076 L41.1270128,8.29816076 C41.5625264,7.53515926 42.0127849,6.83305459 42.2375545,6.4142993 C42.4328343,6.0553662 42.5079973,5.60687893 42.7482311,4.99432843 C43.5286312,3.03559969 45.2552214,1.79437893 47.5068735,1.79437893 C50.3281816,1.79437893 51.9792493,3.60337311 53.6148528,5.4127255 C54.366842,6.24987785 55.5967813,7.99904984 57.023439,9.29973457 C57.9983996,10.1970673 59.859492,11.1986411 62.7264734,14.1435404 C64.377541,15.8482935 66.2986918,18.0609978 68.3255743,21.0213004 C75.5750236,31.5911996 80.3340256,40.9059076 82.9906226,48.1723328 L82.9449494,48.2020647 C75.3351495,43.0587898 68.7456237,38.1999389 63.4324298,32.2044666 C59.6649314,27.9434793 56.3926455,23.0097611 53.5407687,16.715536 C53.3451292,16.2964225 53.1807777,15.9081157 53.0002428,15.5040473 C52.9254394,15.339984 52.8506361,15.2952069 52.7305192,15.2952069 C52.5805529,15.2952069 52.4744617,15.3998062 52.4744617,15.5495408 C52.4744617,15.713604 52.5496246,16.0721789 52.7154147,16.7896869 C54.2316206,23.3092302 58.433194,29.1542516 62.9217532,34.0134607 C67.3952079,38.8425796 72.452704,42.9993258 76.6111216,46.0194506 L79.8528388,55.2592913 C79.9276422,55.4831767 80.0182693,55.7221073 80.0182693,55.9467091 C80.0182693,56.1111306 79.9725961,56.2461782 79.8679434,56.335016 C79.7773163,56.4249284 79.6571994,56.4697054 79.3874758,56.4697054 L78.4125152,56.4697054 C77.9913868,56.4697054 77.8266757,56.4098833 77.6759901,56.2905971 C77.5263835,56.1705945 77.4213711,55.9914862 77.3465678,55.7826459 C77.0610205,54.9150451 75.3498944,50.055836 75.020472,49.0689491 C74.9596943,48.890199 74.8543223,48.8300186 74.7342054,48.8300186 C74.5849584,48.8300186 74.4799461,48.9496629 74.4799461,49.083636 C74.4799461,49.2039968 74.5249,49.3386862 74.6000629,49.7570833 C75.034138,51.9694294 75.5451742,54.4515127 75.7548393,55.3932644 C75.8461857,55.8270647 75.9504788,56.2304167 75.9504788,56.5295276 C75.9504788,56.7989066 75.8904203,56.9482829 75.6652911,57.1728848 L74.6597617,58.1891454 C74.419528,58.4287924 74.2846662,58.4882564 74.0893864,58.4882564 C73.848793,58.4882564 73.6538728,58.3238349 73.5639649,57.9054378 C72.4235738,52.5973833 70.696624,46.0194506 70.2463655,44.1950531 C70.1417127,43.7917011 70.0661902,43.5670993 69.8266757,43.5670993 C69.6162913,43.5670993 69.5418476,43.7168338 69.5418476,43.8963004 C69.5418476,44.0306316 69.571697,44.1950531 69.5860823,44.3143392 C69.8565251,46.1985589 70.9519622,53.0612738 72.1380265,59.3261252 C72.3484109,60.4018498 72.7533558,61.0000716 73.6840818,61.0000716 C74.1041313,61.0000716 74.5094358,60.835292 74.884891,60.4767171 C75.5005799,59.8634502 75.680036,59.6990287 76.4154821,58.9811625 C76.9412632,58.4735695 77.300535,58.2640127 78.2014116,58.2640127 L80.4235738,58.2640127 C80.9493549,58.2640127 81.2338233,58.1293233 81.488802,57.8903927 C81.7286761,57.6657909 81.8793617,57.3516349 81.8793617,56.9031476 C81.8793617,56.4396152 81.7592448,56.0663535 81.5948932,55.6024629 C81.0241582,54.0775345 79.1929153,48.9195727 78.65167,47.4695117 L78.6969836,47.4394215 C80.5738998,48.8601088 83.3060193,50.6691029 84.5064689,50.6691029 C84.8808451,50.6691029 85.1070533,50.5050397 85.1070533,49.921863 C85.1070533,47.1704007 80.513122,35.8529033 70.0212362,20.273344 L70.0212362,20.273344 Z" id="Fill-7" fill="#10183A" mask="url(#mask-2)"></path>
            </g>
        </g>
    </g>
</svg>