<?xml version="1.0" encoding="UTF-8"?>
<svg width="250px" height="80px" viewBox="0 0 250 80" version="1.1" xmlns="http://www.w3.org/2000/svg" xmlns:xlink="http://www.w3.org/1999/xlink">
    <title>Logo_Customer_Unilever</title>
    <defs>
        <polygon id="path-1" points="0 0 68 0 68 14.5041499 0 14.5041499"></polygon>
        <polygon id="path-3" points="0 0 11.9661924 0 11.9661924 9.72003087 0 9.72003087"></polygon>
    </defs>
    <g id="Logo_Customer_Unilever" stroke="none" stroke-width="1" fill="none" fill-rule="evenodd">
        <g id="Group-53" transform="translate(91.000000, 2.000000)">
            <g id="Group-3" transform="translate(0.000000, 60.495850)">
                <mask id="mask-2" fill="white">
                    <use xlink:href="#path-1"></use>
                </mask>
                <g id="Clip-2"></g>
                <path d="M8.75971203,5.44342565 C8.64518189,5.08921674 8.32288731,4.29587166 8.23225008,3.70733596 C8.03799034,2.41064137 8.71893826,1.55282405 9.34820479,1.35733595 C10.0475918,1.15977645 10.3215811,1.51036041 10.5934928,2.33115151 C10.9448744,3.57476654 10.9856482,5.2054739 10.8654045,7.54097413 C10.7134768,10.7304078 9.11291157,14.5824296 5.13318388,14.5029398 C1.69883782,14.4255213 0.179820116,12.2099032 0.0188026811,8.8249814 C-0.0536551645,7.23104134 0.0613943896,5.63710127 0.725461455,3.38109091 C1.07528482,2.17631458 1.38797029,1.74468721 2.47795444,1.51036041 C3.33835889,1.35733595 3.25862929,2.2501081 3.06462925,3.30341352 C2.63715393,5.63710127 2.43899861,6.76420022 2.5981981,9.40963324 C2.75168408,12.2099032 4.04138179,13.2984224 5.4437917,13.2984224 C7.55130216,13.3390735 8.48780033,11.5900376 8.87631982,9.06086175 C9.18900529,7.03529431 8.95604942,6.0651037 8.75971203,5.44342565 M53.6840957,8.20666937 C54.5016487,8.20666937 54.736942,9.17530644 54.5406046,9.75995827 C54.3442672,10.3412441 53.6469578,11.0053858 52.5515199,11.2008739 C52.3201222,10.616222 52.2019562,8.20666937 53.6840957,8.20666937 M38.4279535,9.5258904 C38.4279535,8.86356118 38.0783898,8.32111406 37.6524727,8.32111406 C37.2974553,8.32111406 36.4793828,8.70691177 36.4793828,9.95208035 C36.4793828,10.9279673 36.8273882,11.392737 36.9884057,11.5900376 C38.1131904,11.2376412 38.4279535,10.3026643 38.4279535,9.5258904 M26.2934718,1.58959135 C26.2399725,0.966100824 25.7493887,0.543794741 25.0853217,0.543794741 C24.3469788,0.543794741 23.6494097,1.31487231 23.7195302,2.29075927 C23.7678355,2.93263344 24.1472653,3.46032185 24.8946978,3.46032185 C25.7493887,3.46032185 26.3729417,2.48624737 26.2934718,1.58959135 M32.6401558,3.87537804 C32.5715936,2.78867134 32.3072133,2.29619668 31.7220967,2.33658893 C30.9453175,2.38112396 30.5861447,4.82174759 30.7453442,7.38225333 C30.8471488,9.05179939 31.0951676,9.31175972 31.3299414,9.29518855 C31.7576764,9.26929608 32.788188,6.28285932 32.6401558,3.87537804 M58.518774,7.96871763 C58.0377994,9.96865153 56.572281,12.9128836 54.3853007,12.9128836 C53.8780957,12.9128836 52.9805534,12.7173955 52.9805534,12.2099032 C52.9805534,11.6638311 56.4148995,11.5900376 56.4148995,8.97981834 C56.4148995,8.0093688 55.5194348,6.64613058 54.1910409,6.64613058 C52.43673,6.64613058 50.7234526,8.55362839 50.7234526,11.2008739 C50.7234526,13.5695165 52.2019562,14.3481028 53.6840957,14.3481028 C56.2577776,14.3481028 57.8175691,12.2469294 58.6353818,10.4963399 C59.0311731,11.6638311 59.2589348,14.3481028 60.237765,14.3481028 C60.6301801,14.3481028 60.9020918,14.1544272 61.3718991,13.1047467 C62.5397949,10.4963399 63.6721111,7.50032296 65.2355384,7.50032296 C65.8167594,7.50032296 65.466936,8.55362839 66.869346,8.55362839 C67.5336727,8.55362839 68.0001039,8.0093688 68.0001039,7.3840658 C68.0001039,6.48766871 67.1838494,5.79012573 65.9328478,5.79012573 C62.2673638,5.79012573 61.4887666,11.2764799 60.9020918,11.2764799 C59.9287154,11.2764799 60.237765,6.87864491 59.53656,6.87864491 C58.913007,6.87864491 58.6018798,7.62383001 58.518774,7.96871763 M27.3094399,12.6360931 C27.8940371,12.6360931 28.8985781,12.4460425 29.69068,11.1824902 C29.2372341,10.1825233 28.915459,8.15695584 28.8710493,7.42109202 C28.6378338,3.64856006 30.0958207,0.101033612 31.6891141,0.00316009881 C32.8603861,-0.0670084778 33.7963649,1.0362694 33.903883,2.82388509 C34.1908576,7.52440295 32.621457,9.48342676 31.8371463,11.1788653 C31.9703752,11.8336857 33.0842523,12.9478384 34.1350209,12.9478384 C34.527436,12.9478384 34.9938671,12.7523503 35.1141108,12.5993258 C35.0343812,12.3279728 34.9549113,11.9776478 34.9549113,11.4701555 C34.9549113,8.74730401 36.7107805,6.45245496 38.2336937,6.45245496 C39.4436618,6.45245496 40.1451265,8.04432362 40.1451265,9.09788797 C40.1451265,10.3412441 39.0904623,11.3541573 37.5324888,12.3279728 C37.8064781,12.5993258 38.3113457,12.7930015 38.7424569,12.7930015 C40.9665751,12.7930015 42.1321336,10.1087298 42.992538,7.65697237 C43.1499196,7.19220264 43.4275448,6.52987342 43.96981,6.52987342 C44.9076067,6.52987342 45.3002815,12.6767443 46.8561774,12.6767443 C47.5186862,12.6767443 48.0625096,11.3116936 48.0625096,10.2656381 C48.0625096,9.4870517 47.7905979,9.40963324 47.7905979,8.28072182 C47.7905979,7.03529431 48.4567426,5.99131018 49.3540252,5.99131018 C49.9017442,5.99131018 50.096004,6.52987342 50.096004,7.19220264 C50.096004,9.67891486 48.2996208,14.3113355 45.6498451,14.3113355 C43.6571245,14.3113355 43.8124284,10.8873161 43.1127817,10.8873161 C42.328471,10.8873161 41.234851,14.3481028 37.3769252,14.3481028 C36.7497363,14.3481028 36.0854095,14.03817 35.5434041,13.4146795 C34.6069059,14.03817 33.8244131,14.3113355 32.9271304,14.3113355 C31.485505,14.3113355 30.8601341,12.8336526 30.2773548,12.8336526 C29.572514,12.8336526 28.7949556,14.3481028 26.4508534,14.3481028 C24.5762988,14.3481028 24.2672492,11.8613906 23.6031822,11.8613906 C23.0165073,11.8613906 22.1228606,14.3481028 21.147926,14.3481028 C19.504769,14.3481028 19.1585815,10.0349362 17.711762,10.0349362 C16.5812638,10.0349362 13.006417,14.4125751 12.0366765,14.3149605 C11.6460794,14.2743093 11.4816858,13.9845726 11.5224596,13.5972214 C11.5777768,13.0568457 12.0423901,11.6141176 12.2288586,10.9370297 C12.5454397,9.75452085 12.8342322,8.4539424 12.9952497,8.04277008 C13.1580851,7.62926743 13.5910142,7.32865593 13.936942,7.36205721 C14.1125029,7.37681591 14.1683396,7.70331988 14.2218389,7.96871763 C14.4181763,8.93191728 14.691906,9.91324165 15.0027735,9.91324165 C15.5504925,9.91324165 17.3601207,6.45245496 18.411149,6.45245496 C19.7024049,6.45245496 19.8564103,11.9002293 21.6120198,11.9002293 C22.2005125,11.9002293 22.6277281,11.2008739 23.0165073,10.3412441 C23.0572811,8.898516 23.4494365,6.84161869 24.6170726,6.84161869 C25.4367033,6.84161869 25.8291183,8.66807307 25.2406256,10.2656381 C25.2406256,12.1713234 26.4913675,12.6360931 27.3094399,12.6360931" id="Fill-1" fill="#10183A" mask="url(#mask-2)"></path>
            </g>
            <path d="M54.4832356,12.1339076 C54.1947028,12.1339076 53.779953,12.1339076 53.552451,11.6782002 C53.3657227,11.3084558 53.4285714,10.7069739 53.0769301,10.4431297 C53.4285714,10.5428157 53.7986518,10.5428157 54.0928982,10.5428157 C55.0252411,10.5428157 55.915252,9.90637893 56.5980178,9.90637893 C57.0517234,9.90637893 57.19586,10.1940442 57.19586,10.4827452 C57.19586,11.3913117 55.358703,12.1339076 54.4832356,12.1339076 M54.9421353,14.4655239 C57.0922375,14.4655239 59.0608055,12.7527375 59.0608055,11.2473496 C59.0608055,10.5428157 58.726045,9.96722622 57.8786259,9.86469207 C58.0248401,10.0493053 58.0858709,10.1940442 58.0858709,10.5262445 C58.0858709,11.6587809 56.3487005,12.9207796 54.4645368,12.9207796 C53.779953,12.9207796 53.5747856,13.3956473 53.5747856,13.6429204 C53.5747856,14.2192866 54.1334123,14.4655239 54.9421353,14.4655239 M54.7717685,15.3326625 C55.0439399,17.2927221 58.0248401,19.9353069 58.8296675,19.8752364 C59.3698551,19.8273353 59.5773598,17.316802 59.5773598,15.3326625 C59.5773598,14.197278 59.6399488,13.3099433 59.0405484,13.1033214 C58.0858709,15.0255779 55.5823095,15.4147417 54.7717685,15.3326625" id="Fill-4" fill="#10183A"></path>
            <path d="M8.17511486,28.3151697 C8.87813776,28.3151697 8.73581912,24.0242707 9.87358909,24.0242707 C10.140047,24.0242707 10.2234125,24.2917398 10.2234125,24.6200562 C10.2234125,25.5923183 9.74970955,27.0164038 9.74970955,27.8004276 C9.74970955,28.1924395 9.84969618,28.3151697 10.0385021,28.3151697 C10.5358382,28.3151697 11.4055921,23.5872059 12.253271,23.5872059 C12.5251827,23.5872059 12.6472443,23.8593357 12.6472443,24.1268048 C12.6472443,25.1182272 11.385335,27.9666572 11.385335,28.7690646 C11.385335,28.8917949 11.4242909,28.9958826 11.5276537,28.9958826 C12.0457662,28.9958826 13.082251,26.7693897 13.411298,25.6531655 C13.5982859,25.0767993 13.8463047,24.765054 14.0758844,24.765054 C14.2828697,24.765054 14.4698577,24.9910953 14.4698577,25.4685523 C14.4698577,26.5819282 13.4318147,29.2053526 12.5251827,30.9587903 C11.8203418,32.320216 10.7246441,34.2828648 10.7246441,35.3731964 C10.7246441,35.9322147 10.8246308,36.5114291 11.6333538,37.2133738 C10.3085959,37.1305179 9.76814864,37.006752 9.27237077,35.9746784 C7.05916016,40.3688884 13.3502672,39.9354485 11.1947112,43.8371839 C10.8043737,43.136016 7.70115225,42.4149108 7.70115225,38.3267498 C7.70115225,34.7957945 10.8043737,32.7306116 10.8043737,31.2658749 C10.8043737,30.9771739 10.7007512,30.7317134 10.4324754,30.5048954 C9.74970955,29.9246453 9.72763458,29.45159 9.19082323,29.45159 C8.79503199,29.45159 8.31925144,30.3609333 8.81710696,31.1633407 C8.98357821,31.4310688 9.12797449,31.595227 9.12797449,31.846125 C9.12797449,32.4217145 8.21588863,33.9713784 7.57727271,33.9713784 C6.93346268,33.9713784 6.4374251,32.3810633 6.4374251,29.8223701 C6.4374251,27.5505653 6.95397941,25.2603769 7.59597151,25.2603769 C7.7829595,25.2603769 7.8439903,25.3838839 7.8439903,25.5508903 C7.8439903,25.8183595 7.76270247,26.3522621 7.76270247,27.2636768 C7.76270247,28.2341263 7.98994481,28.3151697 8.17511486,28.3151697" id="Fill-6" fill="#10183A"></path>
            <path d="M13.4542013,34.3623546 C14.3234358,34.3623546 15.0472351,33.7184091 15.0472351,32.3000199 L15.0472351,30.1949626 C15.0472351,29.3907427 15.1100838,28.4850243 15.6487131,27.8382306 C15.5874226,28.1095836 15.5874226,28.3982845 15.5874226,28.6657537 C15.5874226,30.4422356 16.5813157,31.660735 16.5813157,33.3735214 C16.5813157,34.0109939 16.3922501,34.3623546 15.8962125,34.3623546 C15.4227693,34.3623546 15.4635431,33.9289148 15.3599206,33.9289148 C15.278373,33.9289148 15.1542338,34.1953482 15.1542338,34.4840492 C15.1542338,34.9195605 15.4635431,35.6002733 16.329661,35.6002733 C17.0768339,35.6002733 17.676494,34.9195605 17.676494,34.1567685 C17.676494,32.3000199 16.2278565,30.2374262 16.2278565,28.2543224 C16.2278565,27.3864071 16.4571765,26.8097819 16.6439047,26.3522621 C16.6439047,30.4606193 20.1429175,33.4556006 20.1429175,35.1665746 C20.1429175,35.5614346 19.850489,35.8713674 19.4175599,35.8713674 C18.9384032,35.8713674 18.7129788,35.4951499 18.7129788,35.2082614 C18.7129788,35.065335 18.6903844,35.0246839 18.6293536,35.0246839 C18.5054741,35.0246839 18.1335757,35.4379276 18.1335757,35.9746784 C18.1335757,36.652543 18.6903844,37.4800662 19.7266095,37.4800662 C20.9072309,37.4800662 21.549223,36.4876081 21.549223,35.6002733 C21.549223,33.4354044 17.3045956,30.1506865 17.3045956,26.6448469 C17.3045956,26.0444007 17.4082182,25.0767993 17.8429652,24.332391 C15.1100838,26.0858286 14.2624049,28.4195164 14.2624049,30.4606193 C14.2624049,32.2371012 14.1998159,33.1244359 13.2892883,33.1244359 C12.8140272,33.1244359 12.6896282,32.6909961 12.5252346,32.6909961 C12.3992774,32.6909961 12.3346107,33.0617762 12.3346107,33.1668996 C12.3346107,33.9289148 12.8971329,34.3623546 13.4542013,34.3623546" id="Fill-8" fill="#10183A"></path>
            <path d="M44.8170474,11.121098 C45.081947,10.9468417 46.2490637,11.2272571 47.7574335,10.4828487 C47.9459797,10.3795378 48.1290721,10.3370742 48.2937254,10.3370742 C49.0193427,10.3370742 48.8341727,11.1643384 49.4984994,11.1643384 C50.0127164,11.1643384 50.6791208,10.7319342 51.0730941,10.7319342 C51.6891157,10.7319342 52.5809445,12.6715387 52.5809445,13.5772571 C52.5809445,14.6326339 50.9918063,15.2708831 49.1024485,15.2708831 C46.3529459,15.2708831 44.6931678,12.8763481 44.6931678,11.330568 C44.6931678,11.2060253 44.7560166,11.1643384 44.8170474,11.121098 M49.3317685,13.7432278 C50.244114,13.7432278 50.9268799,13.3320554 50.9268799,13.0821932 C50.9268799,12.9998551 50.8030004,12.9382311 50.5347245,12.9382311 C50.2643711,12.9382311 49.7260015,12.9206242 48.7102931,12.752841 C47.8387213,12.6088789 47.1762125,12.2805625 46.9300116,12.2805625 C46.8469059,12.2805625 46.8027559,12.3212137 46.8027559,12.3838734 C46.8027559,12.9206242 47.7982073,13.7432278 49.3317685,13.7432278" id="Fill-10" fill="#10183A"></path>
            <path d="M13.8906624,42.1417195 C13.2060786,42.3095026 12.1088227,43.3796382 12.1088227,45.0750767 C12.1088227,47.0985727 14.2828178,50.2162843 17.865196,50.2162843 C20.88687,50.2162843 21.6324846,48.131682 21.6324846,46.7259802 C21.6324846,43.6082686 19.7065083,41.4224268 17.2045051,41.4224268 C15.8353375,41.4224268 14.6139424,42.414885 14.6139424,43.8778092 C14.6139424,45.2410474 15.6486092,47.2849984 18.1132148,47.2849984 C19.2735792,47.2849984 19.9542674,46.458511 19.9542674,45.510329 C19.9542674,44.5787181 19.1068482,43.3019608 17.865196,43.3019608 C17.4896618,43.3019608 17.2232039,43.5456088 17.2232039,43.9383975 C17.2232039,44.4329436 17.9059698,44.932927 18.753389,44.932927 C18.9603743,44.932927 19.1271052,44.8904634 19.2120289,44.8498122 C19.2530624,44.9106595 19.2735792,45.0139705 19.2735792,45.0970853 C19.2735792,45.5693638 18.8144198,45.8627254 18.1132148,45.8627254 C17.056473,45.8627254 16.0407646,45.0750767 16.0407646,43.837158 C16.0407646,43.0955978 16.6845746,42.5567757 17.6135414,42.5567757 C19.4582298,42.5567757 20.5557454,44.187483 20.5557454,45.8166368 C20.5557454,47.2849984 19.7470224,48.131682 18.0929578,48.131682 C14.7788554,48.131682 13.1655646,45.1579326 13.8906624,42.1417195" id="Fill-12" fill="#10183A"></path>
            <path d="M37.5194256,54.2360893 C38.5148769,54.2360893 38.4611179,54.1529744 38.7740631,54.1529744 C39.0846709,54.1529744 39.1049279,54.3394002 39.1049279,54.4667911 C39.1049279,54.9186146 38.0892195,55.4776329 36.2889407,55.4776329 C35.2324586,55.4776329 34.5922845,54.9186146 34.4034785,54.3005615 C33.3672534,54.9590068 31.7983723,55.5604888 30.2440346,55.5604888 C26.0009655,55.5604888 24.9242263,53.7213471 23.5992087,53.1255615 C22.5835003,52.6716666 21.0312403,53.5571889 18.8588034,51.1424577 C19.1455184,51.203305 19.5415693,51.2255725 19.8506189,51.2255725 C21.7563382,51.2255725 22.7684106,50.2975866 22.7684106,48.8087699 C22.7684106,48.6280405 22.7502313,48.4196062 22.7260786,48.2368054 C23.3088579,48.4638823 24.6338755,49.450903 24.9447431,51.203305 C24.9852571,51.4135518 25.8365719,51.5960937 26.3728638,51.5960937 C27.1187381,51.5960937 28.0677022,51.2900447 28.2141761,50.0705097 C30.6990387,49.8657003 32.3775156,48.4009636 32.7288972,46.5395544 C33.6170902,46.8292911 34.6312403,47.633511 34.881077,48.0470137 C35.2324586,47.9232477 35.6469487,47.8624004 36.1242874,47.8624004 C36.7867963,47.8624004 37.528775,47.9859074 38.4206038,48.2572605 C38.4611179,47.9859074 38.5037096,47.6539661 38.9202773,47.6539661 C39.537857,47.6539661 39.3734634,48.3383039 39.5788905,48.7292801 C39.682513,48.9340895 40.2042615,49.0578554 40.2042615,49.4729116 C40.2042615,49.8657003 39.869501,50.0078499 39.6619963,50.0078499 C39.5788905,50.0078499 39.475268,49.9873949 39.4142372,49.9692702 C39.003383,50.1111609 38.9813081,53.0849103 37.2381645,53.0849103 C35.9578162,53.0849103 34.7753769,52.0297924 34.259342,50.7144553 C34.114686,50.3177827 33.8056364,50.0705097 33.5134676,50.0705097 C33.1823431,50.0705097 32.997173,50.1331695 32.604758,50.5647968 C31.4856868,51.7825194 29.6259354,52.8358248 27.3241652,52.8358248 C26.6208826,52.8358248 26.0619963,52.7731651 25.9178597,52.7731651 C25.8365719,52.7731651 25.8365719,52.7915487 25.8365719,52.8174412 C25.8365719,52.9593319 26.5377768,53.5165377 28.0677022,53.5165377 C31.7129291,53.5165377 32.604758,51.4725866 33.1823431,51.4725866 C33.2693444,51.4725866 33.5134676,51.4725866 33.6557863,51.804528 C34.507101,53.7840068 36.3611389,54.2360893 37.5194256,54.2360893 M35.9170424,50.1111609 C35.9170424,50.5647968 36.2889407,50.9394608 36.7442046,50.9394608 C37.1994684,50.9394608 37.5747429,50.5647968 37.5747429,50.1111609 C37.5747429,49.6593374 37.1994684,49.2864859 36.7442046,49.2864859 C36.2889407,49.2864859 35.9170424,49.6593374 35.9170424,50.1111609" id="Fill-14" fill="#10183A"></path>
            <path d="M52.3108507,39.8100254 C52.0202402,39.8100254 51.7096324,40.0386559 51.7096324,40.5994866 C51.7096324,41.2157273 52.1869712,41.6067035 52.4570649,41.7322819 C52.6014612,41.8133253 52.8289633,41.8964402 53.0549071,41.8964402 C53.6543075,41.8964402 54.1334642,41.7322819 54.1334642,41.2322985 C54.1334642,40.5994866 53.2008616,39.8100254 52.3108507,39.8100254 M50.0776428,41.0901488 C49.6428957,41.0901488 47.2372433,44.2909752 45.6883595,44.2909752 C45.3167208,44.2909752 45.0076712,43.5898073 45.0076712,43.0566815 C45.0076712,42.7635788 45.1928413,42.556698 45.8532725,42.4148073 C49.415134,41.6067035 48.6269276,38.9446993 51.6688586,38.9446993 C53.3452579,38.9446993 55.2104631,40.0811195 55.2104631,42.6398128 C55.2104631,45.3647357 51.3211129,48.7460325 50.7401516,48.7460325 C50.2643711,48.7460325 49.7462585,48.0671321 49.7462585,47.6114247 C49.7462585,47.4713465 49.807549,47.2849208 50.2235973,47.1189501 C52.2074879,46.3331138 53.3452579,44.5159807 53.3452579,43.5898073 C53.3452579,43.3795605 53.2413757,43.17501 52.9736193,43.17501 C52.621978,43.17501 51.1156858,46.6023954 49.435391,46.6023954 C48.275546,46.6023954 47.0949247,45.54909 47.0949247,45.0566153 C47.0949247,44.2280565 50.4513591,42.700919 50.4513591,41.5458562 C50.4513591,41.1087914 50.244114,41.0901488 50.0776428,41.0901488" id="Fill-16" fill="#10183A"></path>
            <path d="M9.10766551,14.0329903 C9.10766551,14.0329903 8.50462925,14.4850728 7.76265052,14.4850728 C6.87263964,14.4850728 6.16727939,13.8274042 6.16727939,12.8976058 C6.16727939,12.2593566 6.49866366,11.5959917 7.264795,11.2676752 C7.24635591,11.3911823 7.24635591,11.4947521 7.24635591,11.6182592 C7.24635591,12.7953306 7.9067871,13.6844778 9.10766551,14.0329903 M13.5372032,17.995573 C13.0821991,18.5333594 12.6082365,19.441926 12.6082365,20.3699119 C12.6082365,21.4822521 13.2894441,22.4156755 14.3459263,22.4156755 C15.3598167,22.4156755 15.8353375,21.5469833 15.8353375,20.6575772 C15.8353375,19.2759553 14.5716104,18.3036933 13.5372032,17.995573 M6.66331697,18.8220604 C6.62799702,18.8839434 6.60228617,18.9667993 6.60228617,19.0488784 C6.60228617,19.2342684 6.81134913,19.441926 6.99444154,19.441926 C7.16091279,19.441926 7.264795,19.3994624 7.34971872,19.3994624 C7.84393836,19.3994624 8.40074704,19.7490106 9.21102832,19.7490106 C9.68473122,19.7490106 10.2475131,19.6042717 10.950536,19.2555003 C12.4420249,18.5121276 13.0209086,16.6747984 13.0209086,16.3666781 C13.0209086,15.971818 12.7027693,16.0254154 12.4420249,15.6621442 C12.1771253,15.3022389 12.2771119,14.9868687 12.1088227,14.8162374 C12.0127317,14.7191406 11.7164077,14.7155157 11.3445093,14.6740877 C11.2169939,14.6585523 11.0523406,14.6520791 10.8874276,14.6520791 C10.2046617,14.6520791 9.39256249,14.7367475 8.48411251,15.3113013 C6.68902782,16.4544535 6.95392747,18.3443445 6.66331697,18.8220604 M11.5276017,16.2633672 C11.6740757,16.4560071 12.0701266,16.6949945 12.0701266,16.844394 C12.0701266,17.1323182 11.9015777,17.5030983 11.5704531,17.5030983 C10.8448359,17.5030983 10.2677702,16.4070703 10.2677702,15.7910886 C10.2677702,15.3954518 10.4934543,15.3540238 10.8043218,15.3540238 C10.950536,15.3540238 11.0133848,15.37422 11.1133714,15.4350672 C11.3021773,15.5383782 11.3021773,15.9498094 11.5276017,16.2633672 M9.62370042,18.7795968 C8.9427525,18.7795968 8.19531995,17.9329132 8.19531995,17.1690855 C8.19531995,16.7576543 8.50462925,16.243171 8.73576718,16.243171 C8.81705502,16.243171 8.85964672,16.3040183 8.87808582,16.4479804 C9.00586094,17.4585633 9.66836977,18.0380366 10.2882869,18.3249251 C10.3511356,18.3663531 10.3916497,18.3865492 10.3916497,18.4310842 C10.3916497,18.5719392 9.9976764,18.7795968 9.62370042,18.7795968 M11.3852831,13.577283 C11.4891653,13.2461184 11.5704531,12.8357228 11.5704531,12.3838993 C11.5704531,11.3911823 11.1133714,9.88605335 9.70732561,9.88605335 C8.90042049,9.88605335 8.3191995,10.5261151 8.3191995,11.2878713 C8.3191995,12.9206501 9.95716234,13.577283 11.3852831,13.577283 M6.02132488,21.8346486 C6.02132488,23.4034729 6.49866366,24.1478813 7.34971872,24.1478813 C8.00859167,24.1478813 8.90042049,23.6701653 9.95716234,22.7623755 C9.14843928,22.9506138 8.52670422,23.073344 7.9678179,23.073344 C7.22402123,23.073344 6.64305994,22.7856788 6.02132488,21.8346486 M6.74642275,19.9991318 C6.72980159,20.1032195 6.72980159,20.2057537 6.72980159,20.3090646 C6.72980159,21.276666 7.24635591,21.8152292 7.92704413,21.8152292 C8.44307904,21.8152292 9.04663471,21.5024483 9.58318636,20.8227711 C9.35568431,20.864199 9.08740848,20.8843952 8.83938969,20.8843952 C8.07118071,20.8843952 7.24635591,20.6780322 6.74642275,19.9991318 M11.8202899,19.7075827 C11.3445093,19.8339379 10.3511356,20.4113398 10.3511356,21.441601 C10.3511356,22.1849736 10.9284611,22.6619128 11.6535589,22.6619128 C12.0254573,22.6619128 12.295551,22.5762087 12.4583864,22.4534785 C11.8813207,21.8973083 11.6740757,21.276666 11.6740757,20.6575772 C11.6740757,20.2241373 11.7369244,19.9584807 11.8202899,19.7075827 M12.5659045,14.0495615 C12.5659045,14.5063046 12.9378028,14.8799328 13.3930666,14.8799328 C13.8462528,14.8799328 14.221787,14.5063046 14.221787,14.0495615 C14.221787,13.597738 13.8462528,13.2277347 13.3930666,13.2277347 C12.9378028,13.2277347 12.5659045,13.597738 12.5659045,14.0495615 M13.6390078,15.9091583 C13.6390078,16.3666781 14.0166196,16.7374582 14.4698058,16.7374582 C14.9232517,16.7374582 15.2972276,16.3666781 15.2972276,15.9091583 C15.2972276,15.4562991 14.9232517,15.0862958 14.4698058,15.0862958 C14.0166196,15.0862958 13.6390078,15.4562991 13.6390078,15.9091583" id="Fill-18" fill="#10183A"></path>
            <path d="M45.9365341,26.0442712 C45.9365341,25.63284 46.3102503,25.2825149 46.7211045,25.2825149 C47.1763683,25.2825149 47.5295679,25.63284 47.5295679,26.0442712 C47.5295679,26.5183622 47.1763683,26.8513393 46.7211045,26.8513393 C46.3102503,26.8513393 45.9365341,26.5183622 45.9365341,26.0442712 M38.6686745,19.6863768 C38.6686745,20.1410484 39.0439491,20.513641 39.4973949,20.513641 C39.9544767,20.513641 40.326375,20.1410484 40.326375,19.6863768 C40.326375,19.2342943 39.9544767,18.8627375 39.4973949,18.8627375 C39.0439491,18.8627375 38.6686745,19.2342943 38.6686745,19.6863768 M37.9672099,22.5964307 C37.9672099,23.2385638 38.5037615,23.7724664 39.1457536,23.7724664 C39.7877457,23.7724664 40.326375,23.2385638 40.326375,22.5964307 C40.326375,21.9581815 39.7877457,21.4222075 39.1457536,21.4222075 C38.5037615,21.4222075 37.9672099,21.9581815 37.9672099,22.5964307 M40.5743938,21.2764329 C40.5743938,21.9801901 41.136916,22.533771 41.836303,22.533771 C42.5393259,22.533771 43.1000302,21.9801901 43.1000302,21.2764329 C43.1000302,20.575524 42.5393259,20.0201306 41.836303,20.0201306 C41.136916,20.0201306 40.5743938,20.575524 40.5743938,21.2764329 M40.6819119,18.5934559 C40.6819119,19.0287082 41.0293979,19.3792921 41.4625867,19.3792921 C41.8973338,19.3792921 42.2507931,19.0287082 42.2507931,18.5934559 C42.2507931,18.1597571 41.8973338,17.8091731 41.4625867,17.8091731 C41.0293979,17.8091731 40.6819119,18.1597571 40.6819119,18.5934559 M44.4247881,16.6119056 C44.4247881,17.0456044 44.7764294,17.3998133 45.2129944,17.3998133 C45.6477415,17.3998133 46.0032784,17.0456044 46.0032784,16.6119056 C46.0032784,16.1802782 45.6477415,15.8260693 45.2129944,15.8260693 C44.7764294,15.8260693 44.4247881,16.1802782 44.4247881,16.6119056 M42.8704505,19.1522152 C42.8704505,19.8753917 43.4719285,20.4729898 44.1993637,20.4729898 C44.9244616,20.4729898 45.5241217,19.8753917 45.5241217,19.1522152 C45.5241217,18.4311101 44.9244616,17.8314407 44.1993637,17.8314407 C43.4719285,17.8314407 42.8704505,18.4311101 42.8704505,19.1522152 M40.7387874,23.983749 C40.7387874,24.4358314 41.1145813,24.8055757 41.5643913,24.8055757 C42.0212134,24.8055757 42.3951893,24.4358314 42.3951893,23.983749 C42.3951893,23.5298541 42.0212134,23.155449 41.5643913,23.155449 C41.1145813,23.155449 40.7387874,23.5298541 40.7387874,23.983749 M43.4516715,22.3289616 C43.4516715,22.7857047 43.8253877,23.155449 44.2806516,23.155449 C44.7356557,23.155449 45.1057361,22.7857047 45.1057361,22.3289616 C45.1057361,21.8750667 44.7356557,21.5024742 44.2806516,21.5024742 C43.8253877,21.5024742 43.4516715,21.8750667 43.4516715,22.3289616 M42.6873581,25.2418638 C42.6873581,26.0240751 43.3277919,26.6659493 44.1157385,26.6659493 C44.9005687,26.6659493 45.5443787,26.0240751 45.5443787,25.2418638 C45.5443787,24.4560275 44.9005687,23.8167426 44.1157385,23.8167426 C43.3277919,23.8167426 42.6873581,24.4560275 42.6873581,25.2418638 M45.6664403,23.4855779 C45.6664403,24.0244001 46.1048233,24.4560275 46.6416346,24.4560275 C47.1763683,24.4560275 47.613193,24.0244001 47.613193,23.4855779 C47.613193,22.9506396 47.1763683,22.5169409 46.6416346,22.5169409 C46.1048233,22.5169409 45.6664403,22.9506396 45.6664403,23.4855779 M45.6054095,20.884421 C45.6054095,21.362137 46.0032784,21.7523364 46.4733454,21.7523364 C46.9467886,21.7523364 47.3430993,21.362137 47.3430993,20.884421 C47.3430993,20.4113657 46.9467886,20.0201306 46.4733454,20.0201306 C46.0032784,20.0201306 45.6054095,20.4113657 45.6054095,20.884421" id="Fill-20" fill="#10183A"></path>
            <path d="M47.7148937,47.963873 C47.1762644,48.3789291 45.9161732,49.306915 43.8252839,49.306915 C42.705953,49.306915 42.2080975,48.9545186 42.0437039,48.9545186 C41.8361991,48.9545186 41.6068791,49.1611405 41.3791174,49.4286096 C40.8869754,50.007824 40.2449833,51.083397 40.2449833,52.2565845 C40.2449833,53.0848844 40.8869754,53.9059344 42.0842179,53.9059344 C45.9608425,53.9059344 48.8544816,51.4948282 48.8544816,49.5319206 C48.8544816,48.4195803 48.1919728,47.963873 47.7148937,47.963873 M46.6417904,47.7386085 C46.806184,47.5930929 46.8469578,47.366016 46.8469578,47.139198 L46.8469578,46.665107 C46.8469578,46.0654375 45.9364302,45.7151125 44.6932198,45.7151125 C43.1812141,45.7151125 42.3748284,46.3976378 42.3748284,46.685562 L42.3748284,47.633744 C42.3748284,48.0265327 43.2869143,48.4195803 44.4044272,48.4195803 C45.296256,48.4195803 46.1049791,48.1906909 46.6417904,47.7386085 M46.4732415,49.7828185 C46.5750461,49.7828185 46.7007436,49.8418533 46.7007436,50.2162584 C46.7007436,50.6683408 46.4934986,51.2698227 45.7515199,51.7400299 C45.2315894,52.0924263 44.5285665,52.3839754 43.4923414,52.4005466 C43.6569947,51.9060006 43.7826922,51.3894459 43.7826922,50.8951588 C43.7826922,50.7291881 43.7624351,50.605681 43.7421781,50.4228802 L44.0122719,50.4228802 C45.6478973,50.4228802 46.3529979,49.7828185 46.4732415,49.7828185" id="Fill-22" fill="#10183A"></path>
            <path d="M38.5647144,24.5611509 C38.7924762,26.3138118 41.1570951,25.4282895 41.1570951,27.5504358 C41.1570951,27.8595918 41.0739893,28.3152992 41.0739893,28.7062754 C41.0739893,29.1637952 41.1145034,29.5550304 41.4625088,29.5550304 C41.8141501,29.5550304 41.8972559,29.3077573 41.8972559,28.9776284 C41.8972559,28.6454281 41.8141501,28.2339969 41.8141501,28.0071789 C41.8141501,27.2829667 42.332003,27.1180317 42.6449482,27.1180317 C43.4292589,27.1180317 44.0325549,27.9240641 45.2131762,27.9240641 C44.9430825,29.2458743 42.2081234,28.8916654 42.2081234,30.3380185 C42.2081234,31.0604182 42.933481,31.22613 43.4090019,31.22613 C43.8476445,31.22613 43.9917811,31.1634702 43.9917811,30.7937258 C43.9917811,30.586845 43.951267,30.3610628 43.951267,30.2116632 C43.951267,30.1324323 44.0122978,30.047505 44.1156606,30.047505 C44.5693662,30.047505 46.8025741,31.7419078 46.8025741,32.2574268 C46.8025741,32.730741 44.445227,33.2076802 43.7624611,33.2076802 C43.5531384,33.2076802 43.5126244,33.0619056 43.5126244,32.9824158 C43.5126244,32.8366412 43.864006,32.4024246 43.864006,32.1541159 C43.864006,31.9697615 43.5531384,31.8459956 42.726236,31.8459956 C42.332003,31.8459956 42.0437298,31.8876824 42.0437298,32.1965795 C42.0437298,32.7555978 42.9558157,33.435275 42.9558157,33.9492404 C42.9558157,34.3624841 42.705979,34.6133821 42.0437298,34.6133821 C41.4809479,34.6133821 40.6353467,34.1760584 40.6353467,33.45573 C40.6353467,32.8765156 41.2350068,32.2998904 41.2350068,31.9495654 C41.2350068,31.8459956 41.1570951,31.6818373 40.9054404,31.6818373 C40.1413868,31.6818373 39.9323238,33.703003 37.2178815,33.9287853 C37.6544465,33.5378091 38.0284225,33.1033336 38.0284225,32.2167756 C38.0284225,31.7833358 37.9245403,31.4309394 37.9245403,30.9586608 C37.9245403,30.3380185 38.2130731,30.02705 38.6257452,30.02705 C39.3936945,30.02705 39.7658525,31.1008104 40.2652663,31.1008104 C40.5353601,31.1008104 40.8241526,30.8556088 40.8241526,30.4827573 C40.8241526,28.9128973 37.8006607,29.1415277 37.8006607,26.9334184 C37.8006607,26.3329722 38.0079057,25.5921888 38.5647144,24.5611509 M48.4400176,30.6073001 C48.4400176,31.123078 48.6067485,31.720676 49.1246014,31.720676 C49.5596082,31.720676 49.9315065,31.0604182 49.9315065,30.3380185 C49.9315065,29.5143792 49.7871102,28.8706925 49.7871102,28.5431529 C49.7871102,28.3981551 49.8502186,28.336531 49.9315065,28.336531 C50.244192,28.3577628 50.5345427,29.2054821 50.867745,29.2054821 C51.2396433,29.2054821 51.7930758,28.5219211 52.0203181,28.5219211 C52.0834266,28.5219211 52.1018657,28.6029645 52.1018657,28.6249731 C52.1018657,28.9333523 51.6281628,29.6156187 51.6281628,29.8833468 C51.6281628,30.1101648 52.8290412,30.150816 52.8290412,30.3610628 C52.8290412,30.6699599 51.5689499,30.6699599 50.9674719,30.9384647 C50.3885882,31.1857377 50.035129,31.4956705 50.035129,31.9089142 C50.035129,32.3200866 50.451437,32.4024246 51.0305803,32.4024246 C52.4163691,32.4024246 53.3861096,31.6606055 53.6985353,31.6606055 C53.7616438,31.6606055 53.7987817,31.7022924 53.7987817,31.7623629 C53.7987817,31.9697615 53.097317,32.6486619 53.097317,32.9622197 C53.097317,33.3117679 54.3833788,33.7185385 54.3592262,33.9287853 C54.3407871,33.9898915 54.2576814,34.0108644 54.1130254,34.0108644 C53.885783,34.0108644 53.5341417,33.9492404 53.2619703,33.9492404 C53.097317,33.9492404 52.9531804,33.971249 52.890072,34.0525513 C52.7456757,34.2167095 52.9329234,35.3124786 52.6423129,35.3124786 C52.3722191,35.3124786 51.6689365,32.8765156 50.0777207,32.8765156 C49.8502186,32.8765156 49.6834877,33.0619056 49.6834877,33.3736509 C49.6834877,34.1952188 50.4922107,35.1472847 51.26016,35.6001439 C51.607646,35.8251494 52.1870491,36.0558512 52.1870491,36.1796172 C52.1870491,36.4258545 50.867745,36.1998133 50.867745,36.6112446 C50.867745,36.9856496 51.0305803,37.5446679 51.0305803,37.8711719 C51.0305803,37.9744828 51.0103233,38.0979898 50.8843661,38.0979898 C50.638425,38.0979898 50.035129,36.9654535 49.7463364,36.9654535 C49.4985773,36.9654535 48.9599481,37.6443539 48.7306281,37.6443539 C48.6677793,37.6443539 48.6270056,37.5832477 48.6270056,37.5216236 C48.6270056,37.0446844 49.3946951,35.9748078 49.3946951,34.919431 C49.3946951,34.4251439 49.3318464,33.3534548 48.7306281,33.3534548 C48.2348502,33.3534548 47.6741459,34.1346304 47.4261271,34.919431 C47.2814712,35.3733259 47.3853534,37.1303885 47.0542288,37.1303885 C46.7415433,37.1303885 46.8230909,35.953576 46.4101591,35.953576 C46.1050051,35.953576 45.440938,36.5115586 45.2131762,36.5115586 C45.1724025,36.5115586 45.1316287,36.4874786 45.1316287,36.4468274 C45.1316287,36.1998133 45.7292111,35.3945577 45.7292111,35.2293638 C45.7292111,34.919431 44.3636794,34.8790387 44.3636794,34.6317657 C44.3636794,34.4841787 44.9004908,34.3844927 45.4001642,34.2987886 C46.4530105,34.1152111 48.0052705,33.3534548 48.0052705,32.2786586 C48.0052705,31.0806143 46.8469838,30.5658721 46.0829301,30.0695136 C45.6884374,29.8222406 45.2555082,29.6156187 45.2555082,29.4514605 C45.2555082,29.2873023 45.7515458,29.2873023 45.9608685,29.2873023 C46.2693987,29.2873023 46.5750721,29.2652937 46.5750721,29.0162082 C46.5750721,28.8297825 46.5342983,28.4592613 46.5342983,28.1713371 C46.5342983,27.9665277 46.5563733,27.800557 46.6418164,27.800557 C46.9467107,27.800557 47.3853534,28.8095863 47.5905207,28.8095863 C47.9200871,28.8095863 48.3808047,27.9867238 48.6880364,27.9867238 C48.7916589,27.9867238 48.8339909,28.0496425 48.8339909,28.2339969 C48.8339909,28.9960121 48.4400176,29.8628918 48.4400176,30.6073001" id="Fill-24" fill="#10183A"></path>
            <path d="M39.1682182,36.3233722 C40.1210778,36.4468792 40.3467619,36.7790795 40.3467619,37.0447362 C40.3467619,37.5001846 39.9322719,37.6444057 39.5380388,37.6444057 C39.249506,37.6444057 38.9201994,37.5832994 38.5646625,37.5832994 C38.1096584,37.5832994 37.6543946,37.6855747 37.2806783,38.1200502 C37.55259,38.1588889 37.9450051,38.3453146 37.9450051,38.7603708 C37.9450051,39.9576384 34.6109053,38.9667338 34.6109053,42.0404281 C34.6109053,43.6708766 36.3075616,45.445805 38.8757897,45.445805 C40.2041836,45.445805 41.0536804,45.0139187 41.0536804,44.5160066 C41.0536804,44.1247715 40.3467619,44.3924995 40.3467619,44.0641831 C40.3467619,43.9199621 40.5947807,43.6506805 40.5947807,43.42205 C40.5947807,43.322364 40.5134928,43.1361972 40.3467619,43.1361972 C39.9766815,43.1361972 39.2700227,43.7337953 37.8413826,43.7337953 C36.7238696,43.7337953 35.6266137,43.095546 35.6266137,42.2284074 C35.6266137,42.0404281 35.7097195,41.9371172 35.8320408,41.9371172 C35.9577383,41.9371172 36.1244692,42.0217856 36.2704237,42.0217856 C36.3906674,42.0217856 36.4127424,41.9371172 36.4127424,41.7100403 C36.4127424,41.4850348 36.4127424,40.8410892 36.8072351,40.8410892 C37.1993905,40.8410892 37.9450051,42.2910672 40.8056616,42.2910672 C41.7548853,42.2910672 43.5961976,42.1049004 44.2805217,41.4850348 C44.2602647,43.7503664 42.478425,46.7461245 38.7516505,46.7461245 C34.8809991,46.7461245 32.8103668,43.6506805 32.8103668,40.800697 C32.8103668,37.6444057 35.397034,34.7765564 38.9388982,34.7765564 C39.8470884,34.7765564 40.6168557,35.0844178 40.6168557,35.4764297 C40.6168557,36.0152518 39.2700227,35.6851229 39.1682182,36.3233722 M45.5239918,37.4191412 C45.6663105,37.6444057 45.7291592,37.8712236 45.7291592,38.0768098 C45.7291592,38.6570599 45.3370038,39.1919982 45.3370038,39.7877838 C45.3370038,40.474193 45.8532985,41.0293274 46.6417645,41.0293274 C47.4889239,41.0293274 48.068327,40.350427 48.068327,39.5425822 C48.068327,38.4501791 47.0728757,37.5214165 45.5239918,37.4191412 M38.6685447,38.7381033 C38.8757897,38.9447252 38.9388982,39.1495346 38.9388982,39.3597814 C38.9388982,39.6679017 38.7924242,39.9980306 38.7924242,40.350427 C38.7924242,40.8410892 39.1682182,41.274788 39.7045101,41.274788 C40.2857311,41.274788 40.681782,40.8208931 40.681782,40.2859548 C40.681782,39.5001185 39.8694231,38.7381033 38.6685447,38.7381033 M41.4198652,35.2294156 C43.5961976,35.6408468 44.7762996,37.2733667 44.7762996,38.8007631 C44.7762996,39.8543274 44.1156087,40.8208931 42.9557637,40.8208931 C41.897204,40.8208931 41.1367861,40.1013415 41.1367861,38.9447252 C41.1367861,38.0768098 41.8140982,37.1718682 41.8140982,36.279096 C41.8140982,35.932137 41.7120339,35.5781871 41.4198652,35.2294156 M42.4968641,37.9742756 C42.4968641,38.2658248 42.7061867,38.4910892 42.9983555,38.4910892 C43.3276621,38.4910892 43.5330892,38.2003169 43.5330892,37.8712236 C43.5330892,37.4395963 43.1406741,36.8381143 42.7687758,36.8381143 C42.6004866,36.8381143 42.6615174,37.0861641 42.6207436,37.354669 C42.6004866,37.5620676 42.4968641,37.8093407 42.4968641,37.9742756" id="Fill-26" fill="#10183A"></path>
            <path d="M19.6452697,16.7375358 C20.3501106,16.7375358 21.154938,12.9380757 21.154938,12.2972372 C21.154938,12.1338558 21.0939072,12.0075006 20.9497707,12.0075006 C20.3095965,12.0075006 19.4177677,15.6213117 19.4177677,16.4276031 C19.4177677,16.5713062 19.4582817,16.7375358 19.6452697,16.7375358 M24.7170592,17.8718847 C25.2333538,17.8718847 25.8143151,15.8916291 25.8143151,14.6518979 C25.8143151,14.3826163 25.7735414,14.0957278 25.6496618,14.0957278 C25.2125774,14.0957278 24.4874795,16.1396789 24.4874795,17.2502066 C24.4874795,17.6857179 24.5931797,17.8718847 24.7170592,17.8718847 M21.341926,16.0374036 C21.5715057,16.0374036 21.8618565,15.7911663 22.3986679,15.1904611 C22.4394416,14.9222152 22.4394416,14.6741654 22.4394416,14.3613845 C22.4394416,13.9509889 22.2745286,13.4960583 22.0265098,13.4960583 C21.4029568,13.4960583 21.0939072,15.1482564 21.0939072,15.5809195 C21.0939072,15.8261211 21.2180465,16.0374036 21.341926,16.0374036 M24.1802479,15.1904611 C24.1802479,14.8391004 24.0935062,14.7570213 24.0119587,14.7570213 C23.8047137,14.7570213 23.5772116,15.0035176 23.2476453,15.558652 C23.288419,16.304096 23.4125583,16.6342249 23.6195436,16.6342249 C23.8473054,16.6342249 24.1802479,15.9092359 24.1802479,15.1904611 M25.7735414,12.7526857 C27.1372551,12.7526857 27.7589902,13.9315696 27.7589902,15.2505317 C27.7589902,15.8261211 27.5940772,16.6746172 27.3239834,16.6746172 C27.0557076,16.6746172 27.098559,16.2015618 27.0557076,15.7652738 C27.0170115,15.2101394 26.911571,15.0863734 26.7225054,15.0863734 C26.3729417,15.0863734 26.1454397,15.9092359 26.1454397,16.6746172 C26.1454397,17.1507796 26.2269872,17.6857179 26.5988856,17.6857179 C26.8061306,17.6857179 26.9946768,17.5842194 27.118816,17.458641 C27.0372685,18.4088944 26.33035,19.2343461 25.3351584,19.2343461 C23.5161808,19.2343461 22.8334149,17.1109052 22.624352,15.8693615 C21.5270961,17.0241654 20.5150236,17.8718847 18.6903325,17.8718847 C16.9936762,17.8718847 16.2278045,16.6342249 16.2278045,15.4563767 C16.2278045,15.1047571 16.353502,14.1972262 16.7864311,14.1972262 C17.3045437,14.1972262 16.8513575,15.8916291 17.865248,15.8916291 C18.1132668,15.8916291 18.5682709,15.6831947 18.8144717,15.0035176 C18.9604262,14.5884614 19.0456096,14.1565751 19.0456096,13.785795 C19.0456096,13.2278124 18.9214704,12.8761927 18.5054221,12.8761927 C18.1537808,12.8761927 17.7190337,13.1439208 17.5730792,13.2886597 C18.0709347,11.8026912 19.2733714,11.0427474 20.5981294,11.0427474 C22.2319369,11.0427474 23.0998728,12.4862522 23.0998728,14.0957278 C23.0998728,14.3209922 23.0832517,14.5708545 23.04066,14.7966368 C23.7436829,13.6428686 24.7170592,12.7526857 25.7735414,12.7526857" id="Fill-28" fill="#10183A"></path>
            <path d="M21.9026043,18.3037192 C21.0107755,18.3037192 20.9700017,19.3792921 20.9700017,21.5467503 C20.3095705,20.1216291 19.2120549,18.5934559 17.9280707,18.5934559 C17.0564989,18.5934559 16.7271923,19.1744827 16.7271923,20.1798871 C16.7271923,20.3901339 16.7474493,20.699031 16.7864052,20.884421 C16.8921053,20.5348728 17.2232299,20.3901339 17.6356423,20.3901339 C18.5274711,20.3901339 19.60447,21.0690343 20.3095705,21.9988327 C19.4990295,21.8566831 18.7129009,21.7109085 18.05221,21.7109085 C17.6356423,21.7109085 17.2640037,21.7523364 16.9546944,21.8973342 C16.353476,22.1637677 15.544753,23.0521381 15.544753,24.3941445 C15.544753,24.5997307 15.5670877,24.8304325 15.6078614,25.0766698 C16.3295831,23.4635694 18.2573774,22.7411696 19.4990295,22.7411696 C19.7470483,22.7411696 19.9340363,22.7624014 20.076355,22.7857047 C19.4398167,23.3620709 19.2938622,24.3739484 19.2530884,25.0536256 C19.2328314,25.3837545 19.1068742,25.406022 18.8772945,25.406022 C18.8772945,26.0856992 19.4177417,27.0975766 19.4177417,27.611542 C19.4177417,27.800557 19.3159371,27.9665277 19.2120549,28.0071789 C19.2120549,28.9128973 20.1207646,29.5752265 20.1207646,30.150816 C20.1207646,30.2965905 20.076355,30.4200976 20.0153242,30.4827573 C20.076355,30.8556088 21.0811557,31.4788404 21.210489,31.7926571 C21.3715065,32.1724995 21.5494048,32.2372307 21.6509496,32.2372307 C22.0059671,32.2372307 22.5614773,31.8257994 22.5614773,31.4521712 C22.5614773,31.3286641 22.4575951,31.1857377 22.3763072,31.123078 C21.9838921,30.8351538 21.7766471,30.2116632 21.6104356,29.8010088 C21.4642214,29.8010088 21.2790513,29.7430097 21.2141249,29.4996205 C21.0995948,29.0705824 21.0938813,28.274648 20.9276697,27.800557 C20.6609521,27.7378973 20.5370726,27.6361399 20.5370726,27.0773805 C20.5370726,26.8099114 20.7017259,25.7566059 20.7017259,25.3837545 C20.5778464,25.3837545 20.4111154,25.3008986 20.4111154,25.0536256 C20.4111154,24.3941445 21.0718063,23.8750006 21.2587943,23.0316831 C22.4394157,23.9006341 22.7258709,24.7861564 22.7258709,25.5701802 C22.7258709,25.9826471 22.666658,26.3772483 22.5835522,26.7469927 C23.4533061,26.3138118 24.757807,25.6734911 24.757807,24.3739484 C24.757807,23.6093439 24.4043478,22.7624014 22.0672576,22.4312368 C22.7907973,22.1637677 23.7013249,22.0208413 24.4690145,22.0208413 C25.7919545,22.0208413 26.5580858,22.4312368 26.7227391,23.3620709 C26.9946508,22.9506396 27.2018959,22.4747362 27.2018959,22.0402606 C27.2018959,21.0283831 26.3508408,20.3696789 25.2741016,20.3696789 C24.0121924,20.3696789 22.8944198,21.0283831 21.6953593,21.8346745 C22.2321706,20.7202628 22.6038093,20.0607818 23.268136,20.0607818 C23.3720183,20.0607818 23.4753811,20.0820136 23.5771856,20.1032454 C23.3291668,19.1928664 22.3986419,18.3037192 21.9026043,18.3037192" id="Fill-30" fill="#10183A"></path>
            <path d="M56.7832918,33.1835484 C57.8174392,33.1835484 58.6446014,34.5291798 58.6446014,36.0964506 C58.6446014,37.7678091 57.858213,39.5849422 56.4555434,40.8210485 C56.4316505,38.0389032 53.0141853,38.9244255 53.0141853,36.9035187 C53.0141853,36.0356033 53.6359203,35.4571657 54.3833529,35.4571657 C55.0437841,35.4571657 55.5637146,35.6407432 55.9356129,36.0154072 C55.5637146,35.6656 55.3751683,35.1666522 55.3751683,34.6907488 C55.3751683,33.9075017 55.8745821,33.1835484 56.7832918,33.1835484" id="Fill-32" fill="#10183A"></path>
            <path d="M38.2967762,13.5773348 C38.8387817,14.0957019 39.3106666,14.3209663 39.88981,14.3209663 C40.1209479,14.3209663 40.3892237,14.2619315 40.535438,14.2619315 C40.7185304,14.2619315 40.8463055,14.3419392 40.8463055,14.4848656 C40.8463055,14.7155675 40.6354246,15.0863475 40.3892237,15.2921926 C40.6354246,15.3952446 40.9055184,15.435119 41.1976871,15.435119 C42.3749323,15.435119 43.7181294,14.6914875 43.7181294,12.8357746 C43.969784,13.1651267 44.1157385,13.8484289 44.1157385,14.1565492 C44.1157385,16.4071221 42.4562201,17.2716715 40.9294113,17.2716715 C39.9324017,17.2716715 39.4345462,16.9459443 39.3106666,16.9459443 C38.9200695,16.9459443 38.9387683,17.7263431 38.6686745,17.7077006 C38.192894,17.6256215 37.7599649,16.5712803 37.7599649,15.4563508 C37.7599649,14.7966109 37.9246182,14.0957019 38.2967762,13.5773348 M41.4197353,12.0737594 C41.2553417,11.8026653 40.6354246,11.6587032 40.346632,11.6587032 C39.4345462,11.6587032 38.816447,12.2972114 38.6889316,12.8761668 C38.6053064,12.6716164 38.5445353,12.4207184 38.5445353,12.1752578 C38.5445353,11.267727 39.1680883,10.1553868 40.6819119,10.1553868 C42.0027743,10.1553868 42.5190689,10.8544833 42.7060569,10.8544833 C42.9151198,10.8544833 43.1221051,10.6470846 43.2870182,10.6470846 C43.5124426,10.6470846 43.5124426,11.0002578 43.5124426,11.247272 C43.5124426,12.0737594 43.1408039,13.4962913 42.2082013,14.012846 C42.043548,13.662262 41.7121638,13.267402 41.1774301,13.0222003 C41.0293979,12.961353 40.970185,12.8357746 40.970185,12.7122675 C40.970185,12.4862263 41.1774301,12.1964897 41.4197353,12.0737594" id="Fill-34" fill="#10183A"></path>
            <path d="M23.9083621,7.57263939 C23.9083621,8.29581591 26.497107,11.823923 26.9947028,11.823923 C27.4076346,11.823923 27.7182424,11.1015233 27.7182424,10.4826934 C27.7182424,10.3195709 27.6756507,10.1554126 27.5941032,10.0298342 C27.2224645,9.51327955 24.5932056,7.44731987 24.0119846,7.44731987 C23.9491359,7.44731987 23.9083621,7.51179211 23.9083621,7.57263939 M8.69507132,5.4455735 C8.69507132,5.8606297 7.11839899,7.24251048 6.56159031,7.24251048 C6.35616323,7.24251048 6.29149655,6.99704993 6.29149655,6.76841947 C6.29149655,6.35336328 6.48212042,5.77777381 6.70416866,5.59316055 C6.97426242,5.34226257 7.59599748,5.22056799 8.07125862,5.22056799 C8.36005118,5.22056799 8.69507132,5.28322775 8.69507132,5.4455735 M27.5941032,6.64102855 C27.5941032,5.40699373 24.2340329,3.15460831 24.1971547,2.18597125 C24.1971547,2.09560655 24.2433823,2.0088668 24.3173984,1.93144833 C24.8947238,1.32608253 27.2834953,0.885392796 27.2834953,0.367025673 C27.2834953,0.0995565229 26.7856398,0.0995565229 26.5378807,0.0995565229 C24.6134627,0.0995565229 21.7990337,0.80409046 21.7990337,1.48117839 C21.7990337,2.18597125 24.3231119,3.90160589 24.3231119,4.74647698 C24.3231119,4.97148249 24.1802738,5.0535616 23.9491359,5.0535616 C23.2476712,5.0535616 21.7138503,4.20869051 20.9905704,4.20869051 C20.6610041,4.20869051 20.5371245,4.43654419 20.5371245,4.76589633 C20.5371245,5.75731877 21.7138503,7.63737055 21.7138503,8.19250498 C21.7138503,8.25153979 21.6954112,8.33646707 21.6102278,8.33646707 C21.2383295,8.33646707 19.4806424,6.27128417 18.8589073,6.27128417 C18.6293276,6.27128417 18.6090706,6.58380621 18.6090706,7.0366654 L18.6090706,7.73679761 C18.6090706,8.2137368 18.5885539,8.50243777 18.3613115,8.50243777 C17.8245002,8.50243777 17.5728455,6.99704993 17.0565509,6.99704993 C16.5199992,6.99704993 16.4127408,9.67950917 15.8961865,9.67950917 C15.2970458,9.67950917 15.8148987,6.72414336 15.2339374,6.72414336 C14.5958409,6.72414336 13.8665877,8.68679211 13.4113239,8.68679211 C13.2469303,8.68679211 13.2061565,8.52263389 13.2061565,8.37893071 C13.2061565,7.77822556 13.5577978,6.81088311 13.5577978,6.230633 C13.5577978,5.9437445 13.4744324,5.77777381 13.2264136,5.77777381 C12.5844215,5.77777381 11.1778563,6.81088311 10.6415643,6.81088311 C10.5563809,6.81088311 10.4527584,6.76841947 10.4527584,6.68349219 C10.4527584,6.18920506 12.708301,4.62193423 12.708301,3.91998954 C12.708301,3.23927667 9.6032616,3.69498403 9.6032616,2.90811206 C9.6032616,2.24785424 11.8203678,1.56506997 11.8203678,0.885392796 C11.8203678,0.288571508 9.1908492,0.0182541869 8.17514083,0.0182541869 C6.95400539,0.0182541869 6.29149655,0.161180587 6.29149655,0.512800244 C6.29149655,1.05136349 9.06696966,1.21552171 9.06696966,1.68780025 C9.06696966,2.14532008 6.19150992,3.36304265 6.19150992,4.06576411 C6.19150992,4.68381722 10.247591,4.10434388 10.247591,4.74647698 C10.247591,5.4455735 6.70416866,8.48042917 6.70416866,9.49023526 C6.70416866,9.71990141 6.87245785,9.82321234 7.10203754,9.82321234 C8.17514083,9.82321234 10.969053,7.77822556 11.7367426,7.77822556 C12.0052781,7.77822556 12.0255352,8.11146156 12.0255352,8.39550189 C12.0255352,8.93510083 11.8424428,9.76055258 11.8424428,10.3591863 C11.8424428,10.8332773 11.9626864,11.164442 12.3771765,11.164442 C13.1451257,11.164442 13.8463307,9.86489921 14.3662612,9.86489921 C15.02877,9.86489921 14.6347967,13.6842965 15.6281704,13.6842965 C16.4755896,13.6842965 16.8311265,9.55496642 17.3656005,9.55496642 C17.9060477,9.55496642 18.3407948,10.7501625 18.8386503,10.7501625 C19.4583077,10.7501625 19.1695152,8.66659599 19.832024,8.66659599 C20.5558233,8.66659599 22.6243779,11.1439869 23.5567208,11.1439869 C23.8473313,11.1439869 23.9491359,10.9182046 23.9491359,10.6258787 C23.9491359,9.5326989 22.4189509,7.05789722 22.4189509,6.27128417 C22.4189509,6.06543908 22.4799817,6.00743996 22.7074837,6.00743996 C23.5162068,6.00743996 25.8771898,7.11874451 26.9947028,7.11874451 C27.3666011,7.11874451 27.5941032,6.91419404 27.5941032,6.64102855 M25.4421831,2.55675133 C25.4421831,2.93037958 26.744866,3.73382273 27.3460844,3.73382273 C27.6959077,3.73382273 27.7997899,3.25973172 27.7997899,2.76233749 C27.7997899,2.14532008 27.5315141,2.12331149 26.9947028,2.12331149 C26.310119,2.12331149 25.4421831,2.3094783 25.4421831,2.55675133 M20.5778983,0.453765426 C20.5778983,0.32999945 19.9543453,0.201831755 19.1069261,0.201831755 C17.7595738,0.201831755 17.9483797,1.31883264 16.9124143,1.31883264 C15.8354154,1.31883264 16.1036913,0.161180587 14.7381595,0.161180587 C13.9109974,0.161180587 13.1451257,0.306178383 13.1451257,0.495970142 C13.1451257,0.741430698 14.1164245,0.639155466 14.1164245,1.31883264 C14.1164245,2.04200915 12.0255352,2.24785424 12.0255352,2.67948161 C12.0255352,2.82422048 12.1904482,2.88869271 12.3992514,2.88869271 C12.8545152,2.88869271 13.5780549,2.67948161 14.0979854,2.67948161 C14.3865182,2.67948161 14.6568717,2.74110567 14.6568717,3.01245869 C14.6568717,3.52694194 13.5372811,4.45777601 13.5372811,4.86998403 C13.5372811,4.99556248 13.6390857,5.03414225 13.7424485,5.03414225 C14.1590162,5.03414225 14.8620391,3.9826493 15.5266255,3.9826493 C16.6236217,3.9826493 15.8961865,6.31452458 16.4979243,6.31452458 C17.1196593,6.31452458 16.8513835,4.021488 17.7374988,4.021488 C18.464934,4.021488 19.0033036,5.60973172 19.4990815,5.60973172 C19.622961,5.60973172 19.7265835,5.50823326 19.7265835,5.36453009 C19.7265835,4.93005455 19.1069261,4.04168412 19.1069261,3.46531788 C19.1069261,3.11576962 19.3567628,2.94591506 19.6860695,2.94591506 C20.1613306,2.94591506 20.8056601,3.23927667 21.154964,3.23927667 C21.2791033,3.23927667 21.4029828,3.1986255 21.4029828,3.05285093 C21.4029828,2.55675133 19.5619302,2.02103625 19.5619302,1.38175133 C19.5619302,0.741430698 20.5778983,0.741430698 20.5778983,0.453765426" id="Fill-36" fill="#10183A"></path>
            <path d="M57.2789917,3.79459234 C57.2789917,5.63010909 55.9357947,7.03658772 53.5098852,7.42885854 C53.779979,7.44724219 54.0298157,7.44724219 54.2778345,7.44724219 C57.1088846,7.44724219 58.1487456,6.17074373 58.1487456,5.09517079 C58.1487456,4.49653703 57.817621,3.96056303 57.2789917,3.79459234 M53.779979,5.88100706 C53.779979,4.41627039 50.2643451,4.04186537 50.2643451,3.71251323 C50.2643451,3.44504408 52.2295369,2.99218489 53.2416094,2.9681049 C51.6890897,0.990438521 49.4782164,1.19447114 49.4782164,0.844663951 C49.4782164,0.639077789 51.134099,0.224021596 52.664284,0.224021596 C53.94671,0.224021596 55.1494063,0.512722566 55.1494063,1.48110071 C55.1494063,2.02095858 54.7143995,2.57894117 54.7143995,3.40335721 C54.7143995,3.86087705 54.9421613,4.25211217 55.5400034,4.25211217 C56.1838135,4.25211217 56.3300277,3.56777436 56.3300277,2.84459785 C56.3300277,2.24777656 56.2243275,1.79491737 56.2243275,1.50336823 C56.2243275,0.639077789 56.8221697,0.0588276775 57.6750427,0.0588276775 C58.3765073,0.0588276775 58.5409009,0.366947996 59.5773858,0.366947996 C59.0203174,0.700960777 58.8148903,1.30037131 58.8148903,1.58829551 C58.8148903,2.45336272 59.369881,3.05303218 59.369881,4.82770164 C59.369881,8.0873039 56.3074333,9.24392025 52.5606615,9.24392025 C51.5280723,9.24392025 50.4310761,9.16106437 49.3540772,8.99690615 C49.185788,8.9785225 49.1470919,8.93502316 49.1470919,8.83171223 C49.1470919,8.56527878 50.6159864,8.41950421 50.6159864,7.09950641 C50.6159864,6.58372853 50.4513331,6.08762892 50.4513331,5.90120319 C50.4513331,5.79607978 50.5346986,5.73704497 50.6159864,5.73704497 C50.9268539,5.73704497 51.5506666,6.93431249 52.7050578,6.93431249 C53.0141074,6.93431249 53.779979,6.83100156 53.779979,5.88100706 M57.1551122,1.31875496 C57.1551122,1.60771486 57.381056,1.83556854 57.6750427,1.83556854 C57.9638352,1.83556854 58.1892596,1.60771486 58.1892596,1.31875496 C58.1892596,1.02927722 57.9638352,0.804271707 57.6750427,0.804271707 C57.381056,0.804271707 57.1551122,1.02927722 57.1551122,1.31875496" id="Fill-38" fill="#10183A"></path>
            <path d="M55.3139557,20.3900303 C55.3139557,19.958403 54.2169595,19.9177518 54.1130773,18.6984757 C54.0928203,18.51205 54.0299715,18.181921 53.7988336,18.181921 C53.4284935,18.181921 53.7172861,19.3165288 53.3025363,19.3165288 C52.3535723,19.3165288 52.0408868,17.4587445 51.6889858,17.4587445 C51.607698,17.4587445 51.5100487,17.5214043 51.5100487,17.7686773 C51.5100487,17.9954953 51.5505628,18.1386806 51.5505628,18.408739 C51.5505628,18.6762082 51.4856364,18.8626339 51.2396952,18.8626339 C50.678991,18.8626339 50.1832131,17.5638679 49.7037967,17.5638679 C49.6019921,17.5638679 49.4986293,17.6257509 49.4986293,17.7262137 C49.4986293,17.9742635 49.9110417,18.4310065 49.9110417,18.6578245 C49.9110417,19.1523706 48.5639491,18.8838657 48.5639491,19.2999576 C48.5639491,19.480687 48.750937,19.5451593 49.0007738,19.5451593 C49.4355208,19.5451593 50.1185464,19.35718 50.4717459,19.35718 C50.678991,19.35718 50.9916764,19.3993847 50.9916764,19.6660771 C50.9916764,19.958403 50.2442439,20.3291831 50.2442439,20.5966522 C50.2442439,20.7204182 50.3699414,20.7812655 50.4717459,20.7812655 C51.0306323,20.7812655 52.0203701,19.8118516 52.7254706,19.8118516 C52.8493502,19.8118516 53.1583998,19.8752882 53.1583998,20.0609371 C53.1583998,20.3291831 52.4571948,20.8024973 52.4571948,21.195286 C52.4571948,21.2960076 52.5182256,21.4223629 52.6423648,21.4223629 C53.0142632,21.4223629 53.5100411,20.452949 54.2169595,20.452949 C54.4831577,20.452949 54.8792087,20.5541886 55.0867134,20.5541886 C55.251107,20.5541886 55.3139557,20.452949 55.3139557,20.3900303 M55.854403,30.4008336 C56.1837096,29.3666886 56.5979399,28.6455835 57.2788878,27.5311718 C56.5979399,27.1808468 54.7979208,26.4372152 54.7979208,25.2179391 C54.7979208,23.7954072 56.575865,22.6822902 56.9477633,22.6822902 C57.1087807,22.6822902 57.1550083,22.8226273 57.1550083,23.0944982 C57.1550083,23.837094 56.8018088,25.0351383 56.8018088,25.6733876 C56.8018088,26.2510484 57.1737071,26.8098078 57.5048317,26.8098078 C57.8582909,26.8098078 58.8295896,25.5700766 58.8295896,24.352613 C58.8295896,22.163923 56.9036133,21.5023706 56.3075891,21.5023706 C55.7507805,21.5023706 54.73689,22.4155978 52.3535723,22.4155978 C47.9035179,22.4155978 46.8893677,18.0159503 46.8893677,16.0991313 C46.8893677,16.0152397 46.9059889,15.9932311 46.9301415,15.9932311 C47.0322058,15.9932311 47.4669529,16.5307586 48.8748166,16.5307586 C49.6019921,16.5307586 50.2645009,16.3464043 51.3209831,16.3464043 C53.7988336,16.3464043 54.9015433,18.0563426 56.4317284,20.2460682 C57.3606951,20.8226934 59.5772819,21.7524918 59.5772819,24.3738448 C59.5772819,26.6870775 57.1087807,27.9666831 56.5130162,30.4422615 C57.4640579,30.3379149 58.0247622,28.6455835 58.9981385,28.6455835 C59.4941761,28.6455835 59.7214185,29.0401846 59.7214185,29.6582377 C59.7214185,30.5657686 59.2053835,31.9290068 58.2117501,32.7720654 C58.2322669,32.691022 58.2322669,32.5877111 58.2322669,32.464204 C58.2322669,31.8875788 58.0026872,31.0603146 57.3404381,31.0603146 C56.3075891,31.0603146 55.9785422,32.175503 55.3952436,33.10323 C54.7979208,30.9994673 53.9891978,29.097407 52.5403006,27.9426031 C51.0729643,26.7694155 48.54551,27.4058523 48.54551,25.2604028 C48.54551,24.6830008 48.9158501,23.8591026 48.9158501,23.1978091 C48.9158501,22.9689197 48.8748166,22.7625568 48.750937,22.5963272 C50.7402815,23.3407355 50.0349212,24.6625458 51.260212,26.0239715 C52.0203701,26.8929226 54.1335941,27.71941 55.3586251,31.2871326 C55.3749865,31.1856342 55.3952436,30.9163525 55.3952436,30.7317393 C55.3952436,27.6740982 51.3433177,24.6830008 50.9916764,23.4432697 C53.3453877,23.7125513 53.761436,24.2917657 54.8792087,27.386433 C55.1069704,28.025459 55.854403,29.6157741 55.854403,30.4008336" id="Fill-40" fill="#10183A"></path>
            <g id="Group-44" transform="translate(37.552616, 0.000000)">
                <mask id="mask-4" fill="white">
                    <use xlink:href="#path-3"></use>
                </mask>
                <g id="Clip-43"></g>
                <path d="M6.9759505,8.56522699 C5.52523536,8.56522699 4.57419367,7.84023801 4.57419367,7.47101147 C4.57419367,7.28484466 4.69807321,7.15952514 4.86298623,7.15952514 C5.31799034,7.15952514 6.31136403,7.86043413 6.64664388,7.86043413 C6.72793171,7.86043413 6.79078045,7.8244436 6.79078045,7.69524021 C6.79078045,7.32549583 6.43939886,6.70744272 6.43939886,6.39466176 C6.43939886,6.31465405 6.50016995,6.25354783 6.6243092,6.25354783 C7.18293582,6.25354783 8.0119159,6.48243721 8.45055856,6.48243721 C8.5931369,6.48243721 8.63365096,6.39466176 8.63365096,6.31465405 C8.63365096,5.86075916 7.28681803,4.97161195 7.28681803,4.70388388 C7.28681803,4.45790547 8.96139935,4.08427722 8.96139935,3.69485457 C8.96139935,3.27979838 6.68741765,3.56772257 6.68741765,3.17648745 C6.68741765,2.88882217 7.12008708,2.39246365 7.12008708,2.16564566 C7.12008708,2.06233473 7.03879924,2.02090679 6.89258502,2.02090679 C6.70767468,2.02090679 5.71196364,2.41188299 5.29929154,2.41188299 C5.09230622,2.41188299 4.84246949,2.37045505 4.84246949,2.08253086 C4.84246949,1.60766307 5.65093284,1.09214412 6.9149197,1.09214412 C8.96139935,1.09214412 10.1825348,2.49862275 10.1825348,4.8481049 C10.1825348,7.8244436 8.09528138,8.56522699 6.9759505,8.56522699 M2.93856818,4.64329551 C2.93856818,4.41621861 2.12984513,3.98277877 2.12984513,3.73369327 C2.12984513,3.69485457 2.1706189,3.67284598 2.23528558,3.67284598 C2.46304734,3.67284598 2.85702064,3.75570186 3.16607024,3.75570186 C3.44005958,3.75570186 3.47667806,2.60089798 3.68236485,2.60089798 C3.82650142,2.60089798 4.07452021,3.69485457 4.30591785,3.69485457 C4.57419367,3.69485457 5.06815361,3.38310931 5.27903451,3.38310931 C5.31799034,3.38310931 5.36265969,3.40330543 5.36265969,3.44499229 C5.36265969,3.58895439 4.84246949,4.14874946 4.84246949,4.3131666 C4.84246949,4.49648525 6.0007562,4.72433893 6.0007562,4.88849715 C6.0007562,5.09511901 4.82221246,5.07492288 4.82221246,5.2610897 C4.82221246,5.40686427 5.2551416,5.98426621 5.2551416,6.17069195 C5.2551416,6.21134312 5.23462486,6.23050354 5.19229286,6.23050354 C5.02737984,6.23050354 4.38902362,5.94361504 4.20229534,5.94361504 C3.97115741,5.94361504 3.60471289,6.78667366 3.4174652,6.78667366 C3.35279852,6.78667366 3.31592033,6.70744272 3.31592033,6.60231932 L3.27151068,5.77764435 C3.27151068,5.69660094 3.23255485,5.60986118 3.12919205,5.60986118 C2.87727767,5.60986118 2.40175683,5.59329001 2.25372467,5.59329001 C2.1519201,5.59329001 2.1095881,5.57102249 2.1095881,5.52959455 C2.1095881,5.36440063 2.93856818,4.78699869 2.93856818,4.64329551 M2.33734986,8.02459235 C2.67029236,8.02459235 2.7331411,8.83166044 2.7939122,9.30497468 C2.83650391,9.55483695 2.87727767,9.57710447 2.98297783,9.57710447 C3.23255485,9.57710447 3.62496992,8.62607428 3.88753222,8.62607428 C4.28358317,8.62607428 5.34006531,9.72003087 7.09983005,9.72003087 C9.60157351,9.72003087 11.9661924,7.96374506 11.9661924,4.8701135 C11.9661924,1.87616792 9.85322818,0.123507052 6.93517673,0.123507052 C5.54757003,0.123507052 4.53160196,0.804219922 3.99323238,0.804219922 C3.66548399,0.824416044 3.16607024,-0.000258924637 2.91805144,-0.000258924637 C2.81624687,-0.000258924637 2.71262436,0.201961217 2.71262436,0.556946894 C2.71262436,0.782988102 2.71262436,1.50331644 2.46304734,1.50331644 C1.96519182,1.50331644 0.0407737697,0.0838915824 0.0407737697,0.597598062 C0.0407737697,1.0709123 1.32294002,2.51415822 1.32294002,2.88882217 C1.32294002,3.25960225 0.0592128631,3.61018621 0.0592128631,3.86108419 C0.0592128631,4.3131666 1.4065652,4.39602249 1.4065652,4.97161195 C1.4065652,5.54979067 0,6.0073105 0,6.43634863 C0,6.78667366 1.4065652,6.5432845 1.4065652,6.97594757 C1.4065652,7.40757494 0.371898333,8.85289226 0.371898333,9.26717168 C0.371898333,9.36582197 0.392155365,9.36582197 0.475780549,9.36582197 C0.867935914,9.36582197 2.0485573,8.02459235 2.33734986,8.02459235" id="Fill-42" fill="#10183A" mask="url(#mask-4)"></path>
            </g>
            <path d="M30.5120767,44.2687595 C30.5120767,44.4588101 30.4510459,44.665432 30.2848343,44.8702414 C30.0570726,44.4588101 29.4132626,44.2485633 29.12447,44.2485633 C26.9946249,44.2485633 27.799712,47.3256237 25.5257303,47.3256237 C24.5728707,47.3256237 24.4874276,47.1982328 24.136046,47.1982328 C23.9919094,47.1982328 23.9082842,47.2647764 23.9082842,47.386471 C23.9082842,47.9232218 24.6762335,49.2439964 26.8060786,49.2439964 C28.9392999,49.2439964 30.9914931,47.9454893 30.9914931,46.3331656 C30.9914931,46.0654375 30.9286444,45.7795847 30.8026872,45.4880356 C30.8842347,45.3645285 31.0951156,45.2816726 31.278208,45.2816726 C31.6095923,45.2816726 31.7983982,45.6560777 32.1090061,45.6560777 C32.4403903,45.6560777 32.6884091,45.4051797 32.6884091,45.0750508 C32.6884091,44.8091352 32.5419352,44.6229684 32.2962537,44.4955774 C32.4606474,44.3720704 32.5845269,44.167261 32.5845269,43.9386305 C32.5845269,43.5898591 32.3367678,43.2615426 31.9220181,43.2615426 C31.7334718,43.2615426 31.6095923,43.3223899 31.465196,43.4627271 C31.4280581,43.0955719 31.2189952,42.7431755 30.8250219,42.7431755 C30.5120767,42.7431755 30.2848343,42.968181 30.2848343,43.3223899 C30.2848343,43.6507064 30.5120767,43.919988 30.5120767,44.2687595" id="Fill-45" fill="#10183A"></path>
            <path d="M19.169619,40.4335677 C20.8257613,40.8411151 21.6511055,41.7323337 21.8193947,42.7838267 C21.984048,43.792856 22.191293,44.6229684 22.5837081,45.0343996 C23.1000027,45.6118016 24.115711,46.1244723 25.0075399,46.1244723 C25.7513365,46.1244723 26.3507369,45.8810832 26.3507369,45.1985578 C26.3507369,44.4588101 25.3350285,42.7838267 23.8474352,42.7838267 C23.701221,42.7838267 23.5160509,42.8058353 23.3088059,42.8058353 C23.1220776,42.8058353 22.8519839,42.7636305 22.6870709,42.6194095 C22.3559463,42.3317443 22.2523238,40.7820803 21.6324067,39.8543533 C20.9496408,38.821244 20.2037665,38.5315074 19.1883178,38.5315074 C18.4647782,38.5315074 17.6578731,38.924555 17.6578731,39.5001444 C17.6578731,39.8543533 17.8430431,40.1013674 19.169619,40.4335677 M24.9446911,45.0564082 C24.3229561,45.0564082 23.3921714,44.3925254 23.3921714,44.0232989 C23.3921714,43.7118126 23.680964,43.545583 23.908466,43.545583 C24.4283965,43.545583 25.3573632,44.187716 25.3573632,44.7244668 C25.3573632,44.8702414 25.2537407,45.0564082 24.9446911,45.0564082" id="Fill-47" fill="#10183A"></path>
            <path d="M23.0407119,28.9775249 C23.0407119,27.6549378 26.1862654,26.9537699 26.1862654,25.324875 C26.1862654,25.0537809 26.0842011,24.5796899 25.8956549,24.2291059 C26.9947287,24.8303289 27.7998159,25.8396172 27.7998159,26.6661046 C27.7998159,28.0881187 26.3101449,28.7478587 26.3101449,29.6359702 C26.3101449,30.6701152 27.9031787,30.8350502 27.9031787,32.1136201 C27.9031787,33.1669255 26.3914328,34.3843891 26.3914328,35.7450381 C26.3914328,36.7983435 27.1373071,37.6644464 28.276895,37.8091853 C27.9031787,37.8915233 27.5738721,37.9559956 27.2224905,37.9559956 C25.1295236,37.9559956 22.9776035,36.2421734 22.9776035,34.1953741 C22.9776035,33.1834967 23.4126102,32.3000458 24.0733011,31.6607609 C24.6560804,32.1542712 25.2334058,32.4844001 25.6053041,32.4844001 C25.9382466,32.4844001 26.0842011,32.3202419 26.0842011,32.0729689 C26.0842011,31.3075877 23.0407119,30.6071965 23.0407119,28.9775249 M29.6445044,39.3966522 C28.93395,39.7231562 28.650871,39.6680053 28.650871,40.3927353 C28.650871,40.6604634 28.5877625,41.008976 28.5877625,41.1954017 C28.5877625,41.4426747 28.6285363,41.5863779 28.9188871,41.5863779 C29.6632032,41.5863779 30.8435648,40.3282631 30.8435648,39.2547615 C30.8435648,38.9668373 30.6786518,38.8415178 30.4916638,38.8415178 C30.3272702,38.8415178 30.1402822,39.1734592 29.6445044,39.3966522 M29.5629568,37.9117195 C29.5629568,36.985546 27.6367208,36.9653499 27.6367208,35.5614605 C27.6367208,35.2080284 27.8624049,34.6132785 28.3176688,33.9714043 C28.5064747,35.0430934 28.9391441,35.6002992 29.8740841,35.9534724 C31.713059,36.6323728 31.962636,37.6644464 31.962636,38.7602155 C31.962636,40.6161873 30.6583948,42.9276075 27.3053366,42.9276075 C24.6134886,42.9276075 22.686993,40.5330725 22.686993,38.5132014 C22.686993,37.9559956 22.8334669,37.332505 23.1830305,37.332505 C23.4938981,37.332505 23.5993385,37.583403 23.8473573,37.8324885 C24.7778823,38.7602155 25.7920324,39.0074885 27.2648225,39.0074885 C28.5877625,39.0074885 29.5629568,38.4725502 29.5629568,37.9117195" id="Fill-49" fill="#10183A"></path>
            <path d="M14.899177,38.3600216 C14.9508584,38.7934614 14.6418088,39.1790002 14.2106976,39.2325976 C13.7777684,39.2804987 13.387431,38.9705659 13.3393855,38.540751 C13.2856264,38.1091236 13.596494,37.7181474 14.0276052,37.6681749 C14.4605343,37.6202739 14.8508717,37.9283942 14.899177,38.3600216 M11.0303435,39.1735628 C11.1189031,39.8762842 11.7775164,40.4112225 12.5252086,40.3283667 C12.7916665,40.3024742 13.0412435,40.2250557 13.2061565,40.1217448 C13.3705502,40.7820026 13.9276185,41.2081926 14.6789467,41.1087655 C15.4430004,41.010892 15.9595547,40.4112225 15.8759295,39.6494663 C15.8556725,39.4410319 15.8148987,39.313641 15.75205,39.1735628 C15.75205,39.1735628 15.8556725,39.1606165 15.9296885,39.1458578 C16.6771211,39.0075921 17.1825081,38.4079226 17.1196593,37.6857818 C17.0362938,36.9442217 16.3683312,36.3924533 15.6707621,36.4745324 C15.4022266,36.5115586 15.1542078,36.6112446 14.9841007,36.7570191 C14.7991903,36.138966 14.2164111,35.6001439 13.4206733,35.7311597 C12.6971337,35.8510418 12.2236905,36.4608094 12.2956289,37.2326637 C12.3067963,37.3564297 12.3345848,37.5003918 12.3992514,37.6443539 C12.3992514,37.6443539 12.2771898,37.660925 12.1938244,37.6736124 C11.5887104,37.7632003 10.9337331,38.3693429 11.0303435,39.1735628" id="Fill-51" fill="#10183A"></path>
        </g>
    </g>
</svg>