<?xml version="1.0" encoding="UTF-8"?>
<svg width="250px" height="80px" viewBox="0 0 250 80" version="1.1" xmlns="http://www.w3.org/2000/svg" xmlns:xlink="http://www.w3.org/1999/xlink">
    <title>Logo_Customer_Loreal</title>
    <g id="Logo_Customer_Loreal" stroke="none" stroke-width="1" fill="none" fill-rule="evenodd">
        <g id="loreal-paris-logo" transform="translate(24.000000, 21.000000)" fill="#10183A">
            <path d="M110.438316,35.4430222 L110.438316,5.13020812 L136.63524,5.13020812 L136.63524,8.4321848 L114.932284,8.4321848 L114.932284,18.1889525 L131.231831,18.1889525 L131.231831,21.5397772 L114.932284,21.5397772 L114.932284,32.135628 L136.63524,32.135628 L136.63524,35.4430222 L110.438316,35.4430222 Z M124.053751,0.235120243 L131.639636,0.235120243 L120.504409,4.35622551 L124.053751,0.235120243 Z M180.614062,32.135628 L203,32.135628 L203,35.4430222 L176.517973,35.4430222 L176.517973,5.13020812 L180.614062,5.13020812 L180.614062,32.135628 Z M149.445893,23.8019517 L163.571084,23.8019517 L156.465182,9.32282462 L149.445893,23.8019517 Z M153.610551,5.13020812 L159.345076,5.13020812 L174.2552,35.4430222 L169.272227,35.4430222 L165.426053,27.5985477 L147.562053,27.5985477 L143.749262,35.4430222 L138.714862,35.4430222 L153.610551,5.13020812 Z M92.7159644,19.1474016 C94.9516711,19.1474016 97.2000089,18.7169799 98.3828222,16.6898353 C99.1027956,15.4665599 99.3833867,13.6664093 98.9467111,12.2938813 C98.2862844,10.2947272 96.4529689,8.72148022 93.1950444,8.72148022 L79.0373733,8.72148022 L79.0373733,19.1474016 L92.7159644,19.1474016 Z M96.2238044,22.7694633 C98.84476,26.8842481 105.205427,35.4430222 105.205427,35.4430222 L99.8994578,35.4430222 L91.0567778,22.7296445 L79.0373733,22.7296445 L79.0373733,35.4430222 L74.8267022,35.4430222 L74.8267022,5.13020812 L93.2897778,5.13020812 C99.6296933,5.13020812 103.154676,8.48735319 103.557067,13.9023421 C103.588644,15.747729 102.935436,20.9159501 96.2238044,22.7694633 Z M49.3873738,34.2378052 C57.6050844,34.2378052 64.6974533,27.4032462 64.6974533,19.1708775 C64.6974533,10.9448292 58.3476133,3.78205899 49.7054973,3.78205899 C40.8485622,3.78205899 34.393072,10.9448292 34.393072,19.1708775 C34.393072,27.4032462 41.1657836,34.2378052 49.3873738,34.2378052 Z M49.5280302,0 C61.3014889,0 69.5008844,8.66730505 69.5008844,19.1609454 C69.5008844,30.3146199 60.55896,38 49.5280302,38 C38.4960178,38 29.5490409,30.2052764 29.5490409,19.1609454 C29.5490409,8.66730505 37.6482898,0 49.5280302,0 Z M18.9478396,15.855357 L23.0603489,5.13020812 L27.4980191,5.13020812 L21.9837271,15.855357 L18.9478396,15.855357 Z M4.09681067,32.135628 L26.482568,32.135628 L26.482568,35.4430222 L0,35.4430222 L0,5.13020812 L4.09681067,5.13020812 L4.09681067,32.135628 Z" id="Shape"></path>
        </g>
    </g>
</svg>